<?xml version="1.0" standalone="no"?>
<!DOCTYPE svg PUBLIC "-//W3C//DTD SVG 20010904//EN"
 "http://www.w3.org/TR/2001/REC-SVG-20010904/DTD/svg10.dtd">
<svg version="1.0" xmlns="http://www.w3.org/2000/svg"
 width="500.000000pt" height="500.000000pt" viewBox="0 0 500.000000 500.000000"
 preserveAspectRatio="xMidYMid meet">

<g transform="translate(0.000000,500.000000) scale(0.100000,-0.100000)"
fill="#000000" stroke="none">
<path d="M2442 4030 c-52 -32 -62 -70 -62 -228 0 -155 7 -174 73 -209 78 -41
187 12 187 90 0 30 -12 38 -62 41 -29 1 -33 -3 -38 -29 -7 -40 -46 -48 -56
-11 -9 36 3 257 14 268 17 17 46 4 52 -22 7 -29 45 -46 85 -36 24 6 26 10 19
34 -4 15 -7 35 -8 46 -1 27 -73 69 -126 73 -33 3 -54 -1 -78 -17z"/>
<path d="M2071 3998 l-34 -9 7 -91 c3 -50 6 -153 6 -229 0 -152 2 -157 65
-141 25 7 31 14 35 47 4 35 8 40 40 46 39 8 50 4 50 -16 0 -21 36 -36 67 -29
39 9 44 14 36 27 -4 7 -8 17 -9 22 -1 6 -31 71 -66 145 -35 74 -73 155 -83
180 -28 64 -40 70 -114 48z m99 -218 c4 0 13 -14 19 -32 13 -35 3 -52 -25 -46
-16 3 -19 14 -21 68 -2 54 0 61 8 38 6 -16 14 -28 19 -28z"/>
<path d="M2805 3997 c-48 -144 -115 -384 -113 -405 3 -25 12 -30 98 -59 122
-40 127 -40 138 0 10 38 0 48 -73 69 -55 15 -56 21 -29 87 10 24 17 31 27 24
6 -6 22 -13 35 -16 19 -5 26 0 37 26 16 38 7 53 -36 62 -28 6 -30 9 -23 38 15
72 21 74 118 40 21 -7 40 -13 41 -13 2 0 6 11 9 24 3 13 8 31 12 39 6 16 -25
30 -159 71 -55 17 -79 21 -82 13z"/>
<path d="M1671 3835 c-36 -19 -69 -39 -73 -43 -10 -10 165 -327 201 -364 31
-33 48 -34 81 -7 14 11 19 18 12 14 -9 -5 -13 -1 -10 11 1 11 -8 37 -20 59
-32 55 -42 74 -42 80 0 2 18 17 40 31 87 58 70 187 -32 240 -43 22 -88 16
-157 -21z m123 -77 c21 -30 20 -61 -3 -82 -19 -17 -20 -16 -45 33 -24 47 -25
51 -8 60 26 16 39 13 56 -11z"/>
<path d="M1400 3633 c-43 -22 -80 -76 -80 -116 0 -59 54 -115 132 -138 17 -5
36 -5 42 0 19 14 118 21 133 10 37 -32 -6 -80 -46 -52 -22 15 -25 14 -54 -15
-26 -27 -29 -33 -17 -47 8 -9 30 -25 51 -35 46 -24 94 -13 138 31 60 60 48
145 -29 197 -33 22 -41 23 -122 17 -105 -8 -128 -2 -128 31 0 32 21 39 57 20
28 -14 31 -13 56 10 35 33 34 48 -7 73 -49 31 -86 35 -126 14z"/>
<path d="M3520 3023 c0 -7 -3 -12 -7 -12 -20 3 -34 -2 -28 -11 3 -5 0 -10 -7
-10 -9 -1 -9 -3 2 -9 17 -10 31 -13 28 -6 -2 2 5 10 14 17 13 9 15 17 8 28 -6
10 -10 11 -10 3z m-13 -32 c0 -11 -5 -18 -9 -15 -4 3 -5 11 -1 19 7 21 12 19
10 -4z"/>
<path d="M3987 2993 c-4 -4 -38 -7 -75 -7 -52 -1 -66 -4 -64 -15 3 -12 0 -12
-12 -2 -10 9 -28 11 -48 7 -18 -4 -55 -9 -83 -11 -27 -3 -56 -12 -65 -21 -14
-15 -13 -16 10 -11 43 10 289 8 288 -3 -1 -3 2 -13 6 -22 13 -30 -1 -47 -59
-72 -44 -20 -61 -35 -86 -75 -22 -35 -42 -54 -69 -65 -43 -17 -178 -36 -255
-36 l-50 0 -21 88 c-12 48 -28 103 -36 122 -14 33 -15 27 -10 -91 l5 -125 -54
-35 c-126 -81 -138 -84 -302 -82 -169 3 -176 1 -288 -75 -135 -91 -235 -114
-368 -87 -98 20 -128 15 -242 -40 -79 -38 -101 -41 -178 -24 -70 15 -164 -7
-228 -53 -27 -19 -57 -38 -67 -42 -20 -7 -116 13 -116 23 0 3 -43 7 -95 9 -81
3 -108 -1 -192 -26 -54 -17 -113 -33 -132 -36 -34 -6 -106 8 -115 23 -7 10 4
51 14 51 8 0 105 61 126 79 7 5 15 7 18 4 3 -4 6 -1 6 6 0 14 -26 8 -82 -20
-21 -11 -44 -19 -53 -19 -8 0 -15 -5 -15 -10 0 -6 -3 -9 -7 -8 -15 4 -53 -13
-53 -23 0 -6 -4 -8 -9 -5 -12 8 -87 -48 -102 -75 -10 -19 -9 -25 6 -36 10 -7
35 -15 54 -18 20 -4 45 -8 56 -10 11 -3 46 -29 77 -59 81 -77 107 -81 210 -27
86 44 116 49 171 26 53 -22 118 -18 200 11 113 42 136 42 198 0 30 -19 67 -45
84 -58 16 -13 33 -22 38 -20 5 1 6 -2 3 -7 -4 -5 10 -8 31 -6 21 1 29 1 18 -2
-11 -2 -27 -7 -35 -10 -17 -7 -28 -9 -52 -11 -10 -1 -18 -9 -18 -17 0 -8 -7
-15 -15 -15 -8 0 -15 -4 -15 -10 0 -5 -7 -10 -15 -10 -8 0 -15 7 -15 17 0 14
-2 14 -17 -3 -25 -27 -50 -28 -65 -4 -7 11 -17 20 -22 20 -5 0 -1 -9 9 -20 24
-27 16 -33 -13 -10 -21 17 -21 20 -6 35 16 15 16 16 -2 13 -14 -2 -18 2 -17
17 1 11 0 14 -3 7 -3 -6 -11 -9 -16 -6 -6 4 -8 2 -4 -4 3 -5 0 -13 -6 -16 -7
-3 -4 -4 6 -3 10 1 21 -4 24 -12 3 -8 0 -11 -7 -7 -32 20 -2 -23 64 -93 205
-214 477 -324 768 -308 251 13 477 116 648 294 57 59 167 200 129 166 -19 -18
-35 -16 -20 2 6 8 10 22 7 32 -4 14 -5 13 -6 -4 0 -13 -6 -23 -12 -23 -6 0 -9
-6 -6 -14 3 -8 3 -17 -1 -21 -4 -3 -15 11 -25 32 -15 34 -17 35 -11 8 3 -16 7
-38 9 -48 2 -10 0 -15 -4 -13 -4 3 -24 -6 -44 -19 -20 -14 -45 -25 -55 -25
-11 0 -22 -6 -25 -13 -3 -8 -31 -24 -64 -36 -32 -13 -68 -28 -80 -34 -13 -6
-26 -7 -30 -4 -3 4 11 14 32 22 20 9 34 19 31 22 -11 11 -87 -30 -82 -44 4
-10 -9 -13 -54 -13 -42 0 -76 -7 -117 -26 -32 -14 -73 -26 -91 -27 -29 -2 -38
4 -65 41 -26 36 -31 51 -30 95 1 29 8 80 17 114 9 33 16 66 16 71 0 9 -40 34
-147 92 -18 10 -30 20 -27 23 5 5 -80 37 -98 37 -5 0 -6 -4 -3 -10 3 -5 0 -7
-9 -4 -8 3 -24 -3 -35 -13 -11 -10 -32 -28 -46 -41 -32 -29 -32 -22 1 34 32
54 68 84 102 84 14 0 71 -23 126 -52 94 -49 106 -52 175 -53 l73 0 72 78 71
79 55 0 c44 0 344 -64 358 -77 2 -1 -11 -23 -28 -48 -17 -25 -37 -62 -46 -82
-8 -21 -34 -57 -58 -80 -70 -71 -70 -72 -36 -70 33 2 47 11 36 22 -4 4 -11 1
-16 -7 -5 -8 -12 -11 -16 -8 -3 4 14 27 40 52 25 25 46 51 46 57 0 6 6 9 14 6
10 -4 12 0 8 15 -4 15 -2 19 7 14 6 -4 18 -2 26 4 8 6 23 9 35 5 12 -4 20 -2
20 5 0 6 -6 8 -12 4 -7 -4 0 7 16 24 17 18 36 32 43 32 7 0 13 5 13 11 0 6 7
9 15 6 8 -4 17 -2 20 3 4 6 -3 10 -15 10 l-21 0 21 27 c11 15 29 33 39 40 17
11 18 11 14 -6 -7 -25 33 -34 64 -14 32 21 60 61 113 162 l45 86 42 -1 c27 0
72 -15 123 -38 83 -39 142 -53 183 -42 33 8 60 67 54 115 -8 60 29 169 70 207
114 104 113 103 113 139 0 51 -35 80 -113 94 -73 13 -101 14 -110 4z m-1857
-937 c0 -2 -7 -7 -16 -10 -8 -3 -12 -2 -9 4 6 10 25 14 25 6z m-360 -184 c0
-12 -3 -12 -15 -2 -8 7 -15 13 -15 15 0 1 7 2 15 2 8 0 15 -7 15 -15z m52 -12
c-9 -11 -21 -20 -27 -20 -5 0 -3 5 5 10 13 8 12 10 -2 10 -30 0 -20 15 12 17
28 2 28 1 12 -17z m14 -24 c0 -14 -5 -21 -9 -17 -4 4 -5 15 -1 24 9 24 12 21
10 -7z m84 -2 c0 -8 -5 -12 -10 -9 -6 4 -8 11 -5 16 9 14 15 11 15 -7z m-40
-24 c6 -11 9 -20 8 -20 -2 0 -11 9 -21 20 -9 11 -13 20 -7 20 5 0 14 -9 20
-20z m40 -14 c0 -3 -4 -8 -10 -11 -5 -3 -10 -1 -10 4 0 6 5 11 10 11 6 0 10
-2 10 -4z"/>
<path d="M3560 2930 c0 -5 7 -10 16 -10 8 0 12 5 9 10 -3 6 -10 10 -16 10 -5
0 -9 -4 -9 -10z"/>
<path d="M3510 2920 c-9 -6 -10 -10 -3 -10 6 0 15 5 18 10 8 12 4 12 -15 0z"/>
<path d="M3448 2903 c7 -3 16 -2 19 1 4 3 -2 6 -13 5 -11 0 -14 -3 -6 -6z"/>
<path d="M3660 2401 c-58 -57 -48 -123 22 -149 108 -41 208 58 131 130 -61 57
-110 63 -153 19z"/>
<path d="M1223 2387 c-51 -19 -51 -28 0 -11 26 9 47 18 47 20 0 6 -12 4 -47
-9z"/>
<path d="M1379 2400 c0 -3 -2 -13 -4 -22 -2 -12 3 -18 15 -18 24 0 36 18 21
33 -8 8 -11 7 -11 -3 0 -13 -2 -13 -10 0 -5 8 -10 13 -11 10z"/>
<path d="M3300 2141 c0 -16 -6 -31 -12 -34 -7 -3 -4 -5 8 -4 16 1 20 7 20 34
-1 41 -16 44 -16 4z"/>
<path d="M3326 2144 c-5 -14 -4 -15 9 -4 17 14 19 20 6 20 -5 0 -12 -7 -15
-16z"/>
<path d="M3339 2123 c-13 -16 -12 -17 4 -4 16 13 21 21 13 21 -2 0 -10 -8 -17
-17z"/>
<path d="M3287 2071 c-2 -10 -1 -24 3 -30 4 -7 7 1 8 18 1 35 -3 40 -11 12z"/>
<path d="M864 2059 c-9 -15 15 -36 48 -44 21 -6 29 -3 35 10 12 32 -64 64 -83
34z"/>
<path d="M1758 2033 c7 -3 16 -2 19 1 4 3 -2 6 -13 5 -11 0 -14 -3 -6 -6z"/>
<path d="M1808 2013 c7 -3 16 -2 19 1 4 3 -2 6 -13 5 -11 0 -14 -3 -6 -6z"/>
<path d="M1635 2000 c-3 -6 1 -7 9 -4 18 7 21 14 7 14 -6 0 -13 -4 -16 -10z"/>
<path d="M1868 2003 c7 -3 16 -2 19 1 4 3 -2 6 -13 5 -11 0 -14 -3 -6 -6z"/>
<path d="M1828 1993 c-10 -2 -18 -11 -18 -18 0 -18 26 -9 34 11 3 8 4 13 3 13
-1 -1 -10 -3 -19 -6z"/>
<path d="M1855 1970 c-7 -12 2 -12 30 0 19 8 19 9 -2 9 -12 1 -25 -3 -28 -9z"/>
<path d="M1730 1960 c0 -5 7 -7 15 -4 8 4 15 8 15 10 0 2 -7 4 -15 4 -8 0 -15
-4 -15 -10z"/>
<path d="M3020 1955 c0 -5 -27 -30 -60 -55 -33 -24 -58 -46 -56 -48 6 -5 79
42 95 62 7 9 18 16 24 16 7 0 7 -4 -1 -12 -14 -14 -16 -28 -3 -28 13 0 19 32
10 55 -4 11 -8 16 -9 10z"/>
<path d="M2856 1830 l-28 -18 25 1 c14 1 23 4 21 6 -2 2 1 10 7 18 15 17 11
16 -25 -7z"/>
<path d="M2996 1610 c-116 -76 -112 -68 -67 -123 13 -16 16 -16 49 3 19 12 36
20 37 18 1 -2 42 -66 90 -143 48 -77 94 -145 102 -152 11 -9 22 -7 49 9 19 11
34 24 34 28 0 9 -31 71 -40 80 -16 16 -63 84 -86 126 -15 27 -30 51 -33 54 -3
3 -12 16 -20 30 -12 21 -12 25 4 35 9 5 26 17 36 25 19 15 19 16 -1 48 -11 17
-25 32 -32 32 -7 0 -62 -32 -122 -70z"/>
<path d="M2030 1516 c0 -3 -27 -99 -60 -213 -33 -114 -60 -210 -60 -214 0 -9
64 -39 83 -39 9 0 18 8 21 18 2 9 14 49 25 88 l21 72 38 -13 c43 -16 53 -9 55
36 2 30 -2 35 -31 44 -33 9 -34 11 -27 50 3 22 10 44 14 48 5 5 32 1 62 -7 29
-9 58 -16 65 -16 17 0 37 60 24 75 -6 7 -54 25 -108 40 -53 15 -103 30 -109
32 -7 3 -13 3 -13 -1z"/>
<path d="M2700 1482 c-22 -10 -42 -32 -54 -56 l-19 -39 33 -121 c39 -144 55
-177 97 -209 24 -18 42 -23 73 -20 84 6 130 51 130 127 0 39 -3 46 -22 51 -13
3 -36 2 -53 -3 -26 -7 -30 -12 -27 -40 2 -22 -2 -33 -15 -41 -31 -16 -45 2
-58 71 -3 13 -9 34 -14 48 -37 104 -39 152 -7 158 11 3 27 -6 40 -22 20 -24
24 -25 58 -15 21 7 39 20 41 30 3 11 1 19 -3 19 -5 0 -11 8 -14 18 -9 26 -77
62 -117 62 -19 0 -50 -8 -69 -18z"/>
<path d="M2376 1442 c-11 -18 -96 -426 -92 -439 3 -8 22 -13 50 -13 42 0 44 1
50 35 7 33 9 35 46 35 33 0 40 -3 40 -20 0 -28 33 -57 61 -54 13 1 30 3 37 3
16 1 15 27 -3 96 -8 31 -17 75 -20 98 -3 23 -10 53 -14 67 -5 14 -15 59 -21
100 -8 42 -20 80 -28 88 -18 13 -98 17 -106 4z m62 -209 c-1 -10 0 -22 3 -28
4 -5 9 -22 13 -37 6 -25 4 -28 -19 -28 -26 0 -26 1 -19 48 3 26 8 50 11 55 8
13 14 7 11 -10z"/>
</g>
</svg>
