<?xml version="1.0" encoding="UTF-8"?>
<!DOCTYPE svg PUBLIC "-//W3C//DTD SVG 1.1//EN" "http://www.w3.org/Graphics/SVG/1.1/DTD/svg11.dtd">
<svg xmlns="http://www.w3.org/2000/svg" version="1.1" width="500px" height="500px" style="shape-rendering:geometricPrecision; text-rendering:geometricPrecision; image-rendering:optimizeQuality; fill-rule:evenodd; clip-rule:evenodd" xmlns:xlink="http://www.w3.org/1999/xlink">
<g><path style="opacity:1" fill="#641251" d="M 263.5,100.5 C 263.5,100.833 263.5,101.167 263.5,101.5C 257.308,96.0232 250.641,95.3565 243.5,99.5C 244.007,98.1411 245.007,97.1411 246.5,96.5C 246.376,95.8933 246.043,95.56 245.5,95.5C 248.532,93.4182 251.866,93.2516 255.5,95C 258.721,96.104 261.388,97.9374 263.5,100.5 Z"/></g>
<g><path style="opacity:1" fill="#7b1039" d="M 214.5,98.5 C 212.316,100.585 209.649,101.585 206.5,101.5C 207.506,100.604 207.506,99.9377 206.5,99.5C 208.937,97.5606 211.603,97.2272 214.5,98.5 Z"/></g>
<g><path style="opacity:1" fill="#690839" d="M 279.5,99.5 C 285.083,99.2288 290.416,100.562 295.5,103.5C 291.934,103.685 288.601,103.019 285.5,101.5C 283.886,101.803 282.552,102.47 281.5,103.5C 281.843,101.517 281.176,100.183 279.5,99.5 Z"/></g>
<g><path style="opacity:0.318" fill="#145059" d="M 251.5,105.5 C 251.089,110.338 250.422,115.005 249.5,119.5C 249.334,115.486 249.501,111.486 250,107.5C 250.278,106.584 250.778,105.918 251.5,105.5 Z"/></g>
<g><path style="opacity:0.557" fill="#36809c" d="M 263.5,100.5 C 264.79,101.058 265.623,102.058 266,103.5C 266.614,105.879 266.947,108.212 267,110.5C 263.731,111.818 260.565,111.818 257.5,110.5C 259.607,109.532 261.941,109.198 264.5,109.5C 264.599,106.763 264.265,104.096 263.5,101.5C 263.5,101.167 263.5,100.833 263.5,100.5 Z"/></g>
<g><path style="opacity:1" fill="#462f78" d="M 299.5,113.5 C 296.572,113.148 293.738,112.482 291,111.5C 290.617,112.056 290.117,112.389 289.5,112.5C 289.631,111.624 289.298,110.957 288.5,110.5C 287.62,113.613 286.62,116.613 285.5,119.5C 284.861,118.903 284.528,118.07 284.5,117C 285.78,114.64 286.447,112.14 286.5,109.5C 288.527,109.338 290.527,109.505 292.5,110C 294.97,111.021 297.304,112.188 299.5,113.5 Z"/></g>
<g><path style="opacity:1" fill="#479dac" d="M 305.5,107.5 C 306.043,107.56 306.376,107.893 306.5,108.5C 305.833,110.167 305.167,111.833 304.5,113.5C 302.701,114.788 301.035,114.788 299.5,113.5C 300.675,113.719 301.675,113.386 302.5,112.5C 302.957,110.402 303.957,108.736 305.5,107.5 Z"/></g>
<g><path style="opacity:1" fill="#911323" d="M 206.5,99.5 C 207.506,99.9377 207.506,100.604 206.5,101.5C 205.833,115.833 205.167,130.167 204.5,144.5C 203.517,129.578 203.184,114.578 203.5,99.5C 204.5,99.5 205.5,99.5 206.5,99.5 Z"/></g>
<g><path style="opacity:1" fill="#3faac1" d="M 253.5,104.5 C 252.833,104.5 252.5,104.833 252.5,105.5C 252.167,105.5 251.833,105.5 251.5,105.5C 250.778,105.918 250.278,106.584 250,107.5C 249.501,111.486 249.334,115.486 249.5,119.5C 250.272,123.452 250.605,127.452 250.5,131.5C 250.167,131.5 249.833,131.5 249.5,131.5C 248.833,131.5 248.5,131.167 248.5,130.5C 248.672,129.508 248.338,128.842 247.5,128.5C 247.264,120.458 247.597,112.458 248.5,104.5C 250.284,103.28 251.95,103.28 253.5,104.5 Z"/></g>
<g><path style="opacity:1" fill="#41a6ba" d="M 289.5,112.5 C 289.233,114.965 288.566,117.299 287.5,119.5C 286.833,119.5 286.167,119.5 285.5,119.5C 286.62,116.613 287.62,113.613 288.5,110.5C 289.298,110.957 289.631,111.624 289.5,112.5 Z"/></g>
<g><path style="opacity:1" fill="#ab0d29" d="M 279.5,99.5 C 281.176,100.183 281.843,101.517 281.5,103.5C 277.011,115.6 273.344,127.933 270.5,140.5C 270.253,141.713 269.586,142.38 268.5,142.5C 267.833,142.5 267.5,142.167 267.5,141.5C 268.167,137.833 268.833,134.167 269.5,130.5C 273.233,120.301 276.566,109.968 279.5,99.5 Z"/></g>
<g><path style="opacity:1" fill="#6a046a" d="M 179.5,112.5 C 182.704,113.383 185.371,115.05 187.5,117.5C 187.5,118.167 187.5,118.833 187.5,119.5C 186.883,119.389 186.383,119.056 186,118.5C 185,119.5 184,120.5 183,121.5C 183.278,125.139 183.278,128.806 183,132.5C 181.266,134.451 179.099,135.451 176.5,135.5C 176.5,134.167 176.5,132.833 176.5,131.5C 177.167,131.5 177.5,131.833 177.5,132.5C 179.153,133.799 180.653,133.466 182,131.5C 182.723,128.613 182.223,125.947 180.5,123.5C 179.893,123.624 179.56,123.957 179.5,124.5C 178.833,124.167 178.167,123.833 177.5,123.5C 177.5,122.833 177.5,122.167 177.5,121.5C 174.383,119.552 171.049,118.886 167.5,119.5C 167.977,120.478 168.643,121.311 169.5,122C 167.639,123.028 166.305,124.528 165.5,126.5C 166.806,128.931 167.806,128.597 168.5,125.5C 169.176,127.5 169.176,129.667 168.5,132C 169.815,135.222 171.649,138.055 174,140.5C 174.44,142.866 174.94,145.199 175.5,147.5C 171.166,140.166 166.833,132.832 162.5,125.5C 161.534,123.604 161.201,121.604 161.5,119.5C 167.545,117.154 173.545,114.821 179.5,112.5 Z M 174.5,122.5 C 175.609,122.557 176.609,122.89 177.5,123.5C 178.167,123.833 178.833,124.167 179.5,124.5C 181.078,127.762 180.411,130.428 177.5,132.5C 177.5,131.833 177.167,131.5 176.5,131.5C 175.662,131.158 175.328,130.492 175.5,129.5C 175.611,128.883 175.944,128.383 176.5,128C 175.584,127.722 174.918,127.222 174.5,126.5C 173.596,125.791 173.263,124.791 173.5,123.5C 174.167,123.5 174.5,123.167 174.5,122.5 Z"/></g>
<g><path style="opacity:1" fill="#a91035" d="M 245.5,95.5 C 246.043,95.56 246.376,95.8933 246.5,96.5C 245.007,97.1411 244.007,98.1411 243.5,99.5C 242.265,99.7214 241.265,100.388 240.5,101.5C 240.154,113.196 239.154,124.53 237.5,135.5C 237.5,135.167 237.5,134.833 237.5,134.5C 237.5,125.5 237.5,116.5 237.5,107.5C 236.736,101.036 239.403,97.0359 245.5,95.5 Z"/></g>
<g><path style="opacity:0.987" fill="#3e207c" d="M 248.5,104.5 C 247.597,112.458 247.264,120.458 247.5,128.5C 247.328,129.492 247.662,130.158 248.5,130.5C 248.5,131.167 248.833,131.5 249.5,131.5C 249.5,131.833 249.5,132.167 249.5,132.5C 249.316,134.925 248.649,134.925 247.5,132.5C 246.335,123.518 246.168,114.518 247,105.5C 247.383,104.944 247.883,104.611 248.5,104.5 Z"/></g>
<g><path style="opacity:0.016" fill="#2f0907" d="M 237.5,107.5 C 237.5,116.5 237.5,125.5 237.5,134.5C 236.833,134.5 236.167,134.5 235.5,134.5C 235.859,132.234 235.192,130.401 233.5,129C 234.211,127.745 235.044,126.579 236,125.5C 236.172,119.319 236.672,113.319 237.5,107.5 Z"/></g>
<g><path style="opacity:0.949" fill="#890d33" d="M 179.5,112.5 C 173.545,114.821 167.545,117.154 161.5,119.5C 161.201,121.604 161.534,123.604 162.5,125.5C 166.833,132.832 171.166,140.166 175.5,147.5C 177.472,151.15 179.472,154.816 181.5,158.5C 181.376,159.107 181.043,159.44 180.5,159.5C 178.567,158.358 177.067,156.692 176,154.5C 170.164,143.495 164.331,132.495 158.5,121.5C 163.055,116.295 168.889,112.961 176,111.5C 177.138,111.989 178.305,112.322 179.5,112.5 Z"/></g>
<g><path style="opacity:1" fill="#4894af" d="M 187.5,117.5 C 193.581,122.841 194.748,129.174 191,136.5C 188.411,138.211 185.911,140.045 183.5,142C 186.159,146.984 188.826,151.984 191.5,157C 189.039,159.639 186.039,161.139 182.5,161.5C 184.597,159.593 186.931,157.759 189.5,156C 186.826,150.984 184.159,145.984 181.5,141C 185.732,138.436 188.899,134.936 191,130.5C 192.094,126.041 190.927,122.374 187.5,119.5C 187.5,118.833 187.5,118.167 187.5,117.5 Z"/></g>
<g><path style="opacity:0.722" fill="#468da4" d="M 294.5,123.5 C 295.07,126.315 294.236,128.981 292,131.5C 290.698,130.915 289.531,130.249 288.5,129.5C 289.675,129.719 290.675,129.386 291.5,128.5C 292.275,126.604 293.275,124.937 294.5,123.5 Z"/></g>
<g><path style="opacity:1" fill="#640673" d="M 214.5,98.5 C 215.167,98.5 215.5,98.8333 215.5,99.5C 221.338,111.842 227.171,124.176 233,136.5C 233.667,137.833 233.667,139.167 233,140.5C 231.052,141.109 229.218,141.776 227.5,142.5C 226.508,142.672 225.842,142.338 225.5,141.5C 225.5,140.167 225.5,138.833 225.5,137.5C 224.5,137.5 223.5,137.5 222.5,137.5C 220.274,136.441 217.941,136.608 215.5,138C 214.88,140.473 214.214,142.973 213.5,145.5C 211.47,146.172 209.47,146.838 207.5,147.5C 206.508,147.672 205.842,147.338 205.5,146.5C 206.497,146.53 207.164,146.03 207.5,145C 206.525,130.536 206.191,116.036 206.5,101.5C 209.649,101.585 212.316,100.585 214.5,98.5 Z"/></g>
<g><path style="opacity:1" fill="#8e0c42" d="M 215.5,119.5 C 218.306,121.693 219.973,124.693 220.5,128.5C 219.564,129.974 218.23,130.974 216.5,131.5C 215.702,131.043 215.369,130.376 215.5,129.5C 218.034,127.25 218.034,124.916 215.5,122.5C 215.5,121.5 215.5,120.5 215.5,119.5 Z"/></g>
<g><path style="opacity:0.957" fill="#220707" d="M 215.5,122.5 C 218.034,124.916 218.034,127.25 215.5,129.5C 215.5,127.167 215.5,124.833 215.5,122.5 Z"/></g>
<g><path style="opacity:1" fill="#50b1ce" d="M 215.5,119.5 C 215.5,120.5 215.5,121.5 215.5,122.5C 215.5,124.833 215.5,127.167 215.5,129.5C 214.206,127.952 213.539,125.952 213.5,123.5C 213.667,121.5 213.833,119.5 214,117.5C 214.717,118.044 215.217,118.711 215.5,119.5 Z"/></g>
<g><path style="opacity:1" fill="#488aa6" d="M 215.5,99.5 C 217.433,100.642 218.933,102.308 220,104.5C 224.003,114.501 228.503,124.168 233.5,133.5C 233.66,135.153 234.326,136.486 235.5,137.5C 237.688,138.652 237.688,140.152 235.5,142C 232.735,143.476 230.068,143.643 227.5,142.5C 229.218,141.776 231.052,141.109 233,140.5C 233.667,139.167 233.667,137.833 233,136.5C 227.171,124.176 221.338,111.842 215.5,99.5 Z"/></g>
<g><path style="opacity:0.937" fill="#500a1a" d="M 262.5,127.5 C 260.167,127.5 257.833,127.5 255.5,127.5C 253.877,129.185 252.544,131.185 251.5,133.5C 250.833,133.5 250.5,133.167 250.5,132.5C 250.5,132.167 250.5,131.833 250.5,131.5C 251.695,131.134 252.361,130.301 252.5,129C 251.813,127.838 251.647,126.672 252,125.5C 255.603,126.135 259.103,126.802 262.5,127.5 Z"/></g>
<g><path style="opacity:1" fill="#87094c" d="M 206.5,101.5 C 206.191,116.036 206.525,130.536 207.5,145C 207.164,146.03 206.497,146.53 205.5,146.5C 204.662,146.158 204.328,145.492 204.5,144.5C 205.167,130.167 205.833,115.833 206.5,101.5 Z"/></g>
<g><path style="opacity:0.016" fill="#081816" d="M 233.5,133.5 C 234.167,133.833 234.833,134.167 235.5,134.5C 235.5,135.5 235.5,136.5 235.5,137.5C 234.326,136.486 233.66,135.153 233.5,133.5 Z"/></g>
<g><path style="opacity:0.007" fill="#1b0200" d="M 269.5,130.5 C 268.833,134.167 268.167,137.833 267.5,141.5C 265.258,139.548 264.924,137.215 266.5,134.5C 267.143,132.924 268.143,131.59 269.5,130.5 Z"/></g>
<g><path style="opacity:1" fill="#660372" d="M 295.5,103.5 C 299.475,103.486 302.808,104.819 305.5,107.5C 303.957,108.736 302.957,110.402 302.5,112.5C 301.675,113.386 300.675,113.719 299.5,113.5C 297.304,112.188 294.97,111.021 292.5,110C 290.527,109.505 288.527,109.338 286.5,109.5C 286.447,112.14 285.78,114.64 284.5,117C 284.528,118.07 284.861,118.903 285.5,119.5C 286.167,119.5 286.833,119.5 287.5,119.5C 289.964,120.567 292.297,121.9 294.5,123.5C 293.275,124.937 292.275,126.604 291.5,128.5C 290.675,129.386 289.675,129.719 288.5,129.5C 287.167,129.5 285.833,129.5 284.5,129.5C 283.811,128.226 282.977,128.226 282,129.5C 281.495,131.518 280.995,133.518 280.5,135.5C 278.992,138.411 279.825,140.744 283,142.5C 285.75,141.709 288.583,141.709 291.5,142.5C 291.427,145.95 289.594,147.283 286,146.5C 281.877,145.633 277.877,144.3 274,142.5C 272.862,142.989 271.695,143.322 270.5,143.5C 269.508,143.672 268.842,143.338 268.5,142.5C 269.586,142.38 270.253,141.713 270.5,140.5C 273.344,127.933 277.011,115.6 281.5,103.5C 282.552,102.47 283.886,101.803 285.5,101.5C 288.601,103.019 291.934,103.685 295.5,103.5 Z"/></g>
<g><path style="opacity:1" fill="#66056f" d="M 263.5,101.5 C 264.265,104.096 264.599,106.763 264.5,109.5C 261.941,109.198 259.607,109.532 257.5,110.5C 256.833,110.167 256.167,109.833 255.5,109.5C 255.923,107.219 255.256,105.552 253.5,104.5C 251.95,103.28 250.284,103.28 248.5,104.5C 247.883,104.611 247.383,104.944 247,105.5C 246.168,114.518 246.335,123.518 247.5,132.5C 248.649,134.925 249.316,134.925 249.5,132.5C 249.833,132.5 250.167,132.5 250.5,132.5C 250.5,133.167 250.833,133.5 251.5,133.5C 254.776,132.878 256.109,130.878 255.5,127.5C 257.833,127.5 260.167,127.5 262.5,127.5C 262.833,127.5 263.167,127.5 263.5,127.5C 263.588,138.069 258.254,142.735 247.5,141.5C 243.495,140.502 240.161,138.502 237.5,135.5C 239.154,124.53 240.154,113.196 240.5,101.5C 241.265,100.388 242.265,99.7214 243.5,99.5C 250.641,95.3565 257.308,96.0232 263.5,101.5 Z"/></g>
<g><path style="opacity:0.859" fill="#b50e34" d="M 255.5,127.5 C 256.109,130.878 254.776,132.878 251.5,133.5C 252.544,131.185 253.877,129.185 255.5,127.5 Z"/></g>
<g><path style="opacity:1" fill="#771629" d="M 253.5,104.5 C 255.256,105.552 255.923,107.219 255.5,109.5C 253.738,108.738 252.738,107.404 252.5,105.5C 253.167,105.5 253.5,105.167 253.5,104.5 Z"/></g>
<g><path style="opacity:1" fill="#50a1bf" d="M 284.5,129.5 C 284.073,132.01 283.407,134.343 282.5,136.5C 281.075,138.031 280.409,137.698 280.5,135.5C 280.995,133.518 281.495,131.518 282,129.5C 282.977,128.226 283.811,128.226 284.5,129.5 Z"/></g>
<g><path style="opacity:1" fill="#940f27" d="M 140.5,135.5 C 141.675,135.281 142.675,135.614 143.5,136.5C 139.853,137.82 137.186,140.153 135.5,143.5C 133.89,146.203 132.89,149.203 132.5,152.5C 129.393,144.371 132.06,138.704 140.5,135.5 Z"/></g>
<g><path style="opacity:1" fill="#600876" d="M 177.5,121.5 C 176.209,121.263 175.209,121.596 174.5,122.5C 174.5,123.167 174.167,123.5 173.5,123.5C 171.984,126.08 172.651,128.08 175.5,129.5C 175.328,130.492 175.662,131.158 176.5,131.5C 176.5,132.833 176.5,134.167 176.5,135.5C 179.099,135.451 181.266,134.451 183,132.5C 183.278,128.806 183.278,125.139 183,121.5C 184,120.5 185,119.5 186,118.5C 186.383,119.056 186.883,119.389 187.5,119.5C 190.927,122.374 192.094,126.041 191,130.5C 188.899,134.936 185.732,138.436 181.5,141C 184.159,145.984 186.826,150.984 189.5,156C 186.931,157.759 184.597,159.593 182.5,161.5C 181.5,161.167 180.833,160.5 180.5,159.5C 181.043,159.44 181.376,159.107 181.5,158.5C 179.472,154.816 177.472,151.15 175.5,147.5C 174.94,145.199 174.44,142.866 174,140.5C 171.649,138.055 169.815,135.222 168.5,132C 169.176,129.667 169.176,127.5 168.5,125.5C 167.806,128.597 166.806,128.931 165.5,126.5C 166.305,124.528 167.639,123.028 169.5,122C 168.643,121.311 167.977,120.478 167.5,119.5C 171.049,118.886 174.383,119.552 177.5,121.5 Z M 174.5,122.5 C 175.609,122.557 176.609,122.89 177.5,123.5C 178.167,123.833 178.833,124.167 179.5,124.5C 181.078,127.762 180.411,130.428 177.5,132.5C 177.5,131.833 177.167,131.5 176.5,131.5C 175.662,131.158 175.328,130.492 175.5,129.5C 175.611,128.883 175.944,128.383 176.5,128C 175.584,127.722 174.918,127.222 174.5,126.5C 173.596,125.791 173.263,124.791 173.5,123.5C 174.167,123.5 174.5,123.167 174.5,122.5 Z"/></g>
<g><path style="opacity:0.992" fill="#9f112f" d="M 177.5,132.5 C 180.411,130.428 181.078,127.762 179.5,124.5C 179.56,123.957 179.893,123.624 180.5,123.5C 182.223,125.947 182.723,128.613 182,131.5C 180.653,133.466 179.153,133.799 177.5,132.5 Z"/></g>
<g><path style="opacity:0.549" fill="#4f6794" d="M 173.5,123.5 C 173.263,124.791 173.596,125.791 174.5,126.5C 174.918,127.222 175.584,127.722 176.5,128C 175.944,128.383 175.611,128.883 175.5,129.5C 172.651,128.08 171.984,126.08 173.5,123.5 Z"/></g>
<g><path style="opacity:0.447" fill="#4380af" d="M 174.5,122.5 C 175.209,121.596 176.209,121.263 177.5,121.5C 177.5,122.167 177.5,122.833 177.5,123.5C 176.609,122.89 175.609,122.557 174.5,122.5 Z"/></g>
<g><path style="opacity:1" fill="#66115a" d="M 140.5,135.5 C 142.966,134.366 145.633,134.199 148.5,135C 151.407,136.609 154.073,138.442 156.5,140.5C 155.833,141.5 155.167,142.5 154.5,143.5C 154.5,142.167 154.5,140.833 154.5,139.5C 151.15,139.386 147.817,139.053 144.5,138.5C 143.167,138.833 141.833,139.167 140.5,139.5C 139.103,141.237 137.436,142.571 135.5,143.5C 137.186,140.153 139.853,137.82 143.5,136.5C 142.675,135.614 141.675,135.281 140.5,135.5 Z"/></g>
<g><path style="opacity:0.455" fill="#83123c" d="M 222.5,137.5 C 223.5,137.5 224.5,137.5 225.5,137.5C 225.5,138.833 225.5,140.167 225.5,141.5C 223.738,140.738 222.738,139.404 222.5,137.5 Z"/></g>
<g><path style="opacity:1" fill="#48a4bd" d="M 263.5,127.5 C 266.092,129.036 267.092,131.369 266.5,134.5C 262.068,142.164 255.735,144.498 247.5,141.5C 258.254,142.735 263.588,138.069 263.5,127.5 Z"/></g>
<g><path style="opacity:1" fill="#4ba5be" d="M 156.5,140.5 C 157.303,141.423 157.47,142.423 157,143.5C 155.5,145 154,146.5 152.5,148C 151.563,148.692 150.897,148.525 150.5,147.5C 151.5,145.833 152.833,144.5 154.5,143.5C 155.167,142.5 155.833,141.5 156.5,140.5 Z"/></g>
<g><path style="opacity:0.812" fill="#4e95bb" d="M 145.5,145.5 C 144.691,147.028 144.024,148.694 143.5,150.5C 141.439,149.249 141.106,147.582 142.5,145.5C 143.687,144.347 144.687,144.347 145.5,145.5 Z"/></g>
<g><path style="opacity:1" fill="#5796b2" d="M 222.5,137.5 C 220.648,138.089 218.815,138.756 217,139.5C 217.053,141.936 216.887,144.269 216.5,146.5C 214.024,147.229 211.524,147.896 209,148.5C 208.235,148.43 207.735,148.097 207.5,147.5C 209.47,146.838 211.47,146.172 213.5,145.5C 214.214,142.973 214.88,140.473 215.5,138C 217.941,136.608 220.274,136.441 222.5,137.5 Z"/></g>
<g><path style="opacity:1" fill="#531b6a" d="M 280.5,135.5 C 280.409,137.698 281.075,138.031 282.5,136.5C 286.24,138.353 289.906,140.353 293.5,142.5C 292.892,145.406 291.559,147.74 289.5,149.5C 282.832,148.255 276.499,146.255 270.5,143.5C 271.695,143.322 272.862,142.989 274,142.5C 277.877,144.3 281.877,145.633 286,146.5C 289.594,147.283 291.427,145.95 291.5,142.5C 288.583,141.709 285.75,141.709 283,142.5C 279.825,140.744 278.992,138.411 280.5,135.5 Z"/></g>
<g><path style="opacity:0.933" fill="#4999b0" d="M 293.5,142.5 C 294.376,142.369 295.043,142.702 295.5,143.5C 294.423,145.729 293.756,148.063 293.5,150.5C 291.901,150.768 290.568,150.434 289.5,149.5C 291.559,147.74 292.892,145.406 293.5,142.5 Z"/></g>
<g><path style="opacity:0.271" fill="#3c070b" d="M 159.5,150.5 C 154.848,150.998 150.181,151.331 145.5,151.5C 144.833,151.5 144.5,151.167 144.5,150.5C 149.673,149.707 154.673,149.707 159.5,150.5 Z"/></g>
<g><path style="opacity:1" fill="#720744" d="M 135.5,143.5 C 134.227,147.801 134.227,152.135 135.5,156.5C 133.738,155.738 132.738,154.404 132.5,152.5C 132.89,149.203 133.89,146.203 135.5,143.5 Z"/></g>
<g><path style="opacity:0.941" fill="#4e497c" d="M 139.5,159.5 C 144.797,160.275 150.13,160.608 155.5,160.5C 154.449,161.222 153.782,162.222 153.5,163.5C 150.587,162.759 147.587,162.259 144.5,162C 142.509,161.626 140.842,160.793 139.5,159.5 Z"/></g>
<g><path style="opacity:1" fill="#56ace1" d="M 278.5,155.5 C 281.912,156.075 284.912,157.408 287.5,159.5C 286.167,159.5 284.833,159.5 283.5,159.5C 281.239,166.428 276.572,171.095 269.5,173.5C 267.899,178.05 265.232,181.717 261.5,184.5C 262.891,182.079 263.725,179.412 264,176.5C 269.521,169.981 275.354,163.814 281.5,158C 279.881,157.764 278.881,156.931 278.5,155.5 Z"/></g>
<g><path style="opacity:1" fill="#2bd6db" d="M 232.5,151.5 C 237.68,150.185 243.014,150.185 248.5,151.5C 249.263,152.719 250.263,153.719 251.5,154.5C 255.31,155.071 258.976,155.904 262.5,157C 258.147,157.245 253.813,157.245 249.5,157C 250.308,157.308 250.975,157.808 251.5,158.5C 249.892,159.318 248.225,159.985 246.5,160.5C 245.455,162.401 244.122,164.067 242.5,165.5C 235.19,167.495 227.857,169.495 220.5,171.5C 216.944,174.389 214.611,178.056 213.5,182.5C 209.654,183.842 207.487,186.509 207,190.5C 202.488,194.532 197.988,198.699 193.5,203C 190.5,204.5 187.5,206 184.5,207.5C 182.517,209.81 181.517,212.477 181.5,215.5C 178.491,215.423 176.324,216.756 175,219.5C 174.292,218.619 173.458,217.953 172.5,217.5C 172.5,214.167 172.5,210.833 172.5,207.5C 173.319,204.695 173.819,201.695 174,198.5C 174.383,197.944 174.883,197.611 175.5,197.5C 174.508,200.779 174.341,204.112 175,207.5C 175.309,206.234 175.809,205.067 176.5,204C 187.825,203.82 195.825,198.653 200.5,188.5C 201.891,186.11 203.891,184.443 206.5,183.5C 209.313,178.53 212.479,173.864 216,169.5C 219.84,167.322 223.007,164.488 225.5,161C 223.842,160.275 223.342,159.108 224,157.5C 224.414,157.957 224.914,158.291 225.5,158.5C 228.109,157.77 230.776,157.27 233.5,157C 232.359,156.259 232.359,155.425 233.5,154.5C 241.299,152.63 240.965,151.63 232.5,151.5 Z"/></g>
<g><path style="opacity:1" fill="#830924" d="M 162.5,161.5 C 163.5,161.5 164.5,161.5 165.5,161.5C 166.092,166.099 164.425,167.766 160.5,166.5C 162.213,165.365 162.88,163.698 162.5,161.5 Z"/></g>
<g><path style="opacity:1" fill="#1fdcd8" d="M 232.5,151.5 C 240.965,151.63 241.299,152.63 233.5,154.5C 232.359,155.425 232.359,156.259 233.5,157C 230.776,157.27 228.109,157.77 225.5,158.5C 224.914,158.291 224.414,157.957 224,157.5C 223.342,159.108 223.842,160.275 225.5,161C 223.007,164.488 219.84,167.322 216,169.5C 212.479,173.864 209.313,178.53 206.5,183.5C 203.891,184.443 201.891,186.11 200.5,188.5C 195.825,198.653 187.825,203.82 176.5,204C 175.809,205.067 175.309,206.234 175,207.5C 174.341,204.112 174.508,200.779 175.5,197.5C 175.201,195.396 175.534,193.396 176.5,191.5C 181.457,185.101 185.957,178.434 190,171.5C 193.533,167.539 197.533,166.873 202,169.5C 202.833,169.167 203.667,168.833 204.5,168.5C 203.329,166.831 201.996,165.331 200.5,164C 202.765,162.243 204.431,160.076 205.5,157.5C 208.238,156.763 210.905,156.763 213.5,157.5C 216.063,157.263 216.063,156.763 213.5,156C 213.833,155.667 214.167,155.333 214.5,155C 220.703,154.588 226.703,153.421 232.5,151.5 Z"/></g>
<g><path style="opacity:0.878" fill="#9b0f2b" d="M 153.5,165.5 C 154.376,165.369 155.043,165.702 155.5,166.5C 154.046,168.437 152.379,170.103 150.5,171.5C 149.711,171.217 149.044,170.717 148.5,170C 150.083,168.242 151.75,166.742 153.5,165.5 Z"/></g>
<g><path style="opacity:1" fill="#600a72" d="M 154.5,143.5 C 152.833,144.5 151.5,145.833 150.5,147.5C 148.833,146.833 147.167,146.167 145.5,145.5C 144.687,144.347 143.687,144.347 142.5,145.5C 141.106,147.582 141.439,149.249 143.5,150.5C 143.833,150.5 144.167,150.5 144.5,150.5C 144.5,151.167 144.833,151.5 145.5,151.5C 146.694,152.777 148.36,153.444 150.5,153.5C 154.74,153.021 158.74,152.021 162.5,150.5C 166.37,151.263 169.37,153.263 171.5,156.5C 175.515,168.511 171.182,175.511 158.5,177.5C 155.079,176.461 152.412,174.461 150.5,171.5C 152.379,170.103 154.046,168.437 155.5,166.5C 155.043,165.702 154.376,165.369 153.5,165.5C 153.5,164.833 153.5,164.167 153.5,163.5C 156.022,164.011 158.355,165.011 160.5,166.5C 164.425,167.766 166.092,166.099 165.5,161.5C 164.5,161.5 163.5,161.5 162.5,161.5C 160.283,160.631 157.95,160.298 155.5,160.5C 150.13,160.608 144.797,160.275 139.5,159.5C 137.596,159.262 136.262,158.262 135.5,156.5C 134.227,152.135 134.227,147.801 135.5,143.5C 137.436,142.571 139.103,141.237 140.5,139.5C 141.833,139.167 143.167,138.833 144.5,138.5C 147.817,139.053 151.15,139.386 154.5,139.5C 154.5,140.833 154.5,142.167 154.5,143.5 Z"/></g>
<g><path style="opacity:0.988" fill="#90104b" d="M 159.5,150.5 C 160.5,150.5 161.5,150.5 162.5,150.5C 158.74,152.021 154.74,153.021 150.5,153.5C 148.36,153.444 146.694,152.777 145.5,151.5C 150.181,151.331 154.848,150.998 159.5,150.5 Z"/></g>
<g><path style="opacity:1" fill="#479db7" d="M 171.5,156.5 C 173.113,156.944 174.28,157.944 175,159.5C 176.59,171.983 171.09,177.983 158.5,177.5C 171.182,175.511 175.515,168.511 171.5,156.5 Z"/></g>
<g><path style="opacity:1" fill="#41cade" d="M 264.5,170.5 C 256.692,171.997 248.692,173.163 240.5,174C 239.594,175.699 239.261,177.533 239.5,179.5C 238.022,179.238 236.689,179.571 235.5,180.5C 232.399,182.569 229.399,184.902 226.5,187.5C 225.253,189.006 225.253,190.506 226.5,192C 218.897,196.11 213.563,202.277 210.5,210.5C 210.863,211.183 211.196,211.85 211.5,212.5C 209.518,212.995 207.518,213.495 205.5,214C 201.518,218.829 196.852,222.662 191.5,225.5C 191.5,226.5 191.5,227.5 191.5,228.5C 186.257,229.81 180.923,230.476 175.5,230.5C 174.588,228.405 173.421,226.405 172,224.5C 171.182,218.651 171.348,212.985 172.5,207.5C 172.5,210.833 172.5,214.167 172.5,217.5C 172.627,222.428 174.794,226.095 179,228.5C 182.87,227.66 186.703,226.66 190.5,225.5C 190.351,224.448 190.517,223.448 191,222.5C 193.333,220.833 195.667,219.167 198,217.5C 198.21,216.197 198.043,214.864 197.5,213.5C 198.809,211.024 200.642,209.024 203,207.5C 203.49,206.207 203.657,204.873 203.5,203.5C 204.552,203.649 205.552,203.483 206.5,203C 207.859,200.666 209.693,198.833 212,197.5C 212.805,199.901 213.638,199.734 214.5,197C 214.043,196.586 213.709,196.086 213.5,195.5C 216.131,192.104 218.298,188.438 220,184.5C 222.926,183.078 225.426,181.078 227.5,178.5C 228.03,176.756 228.03,175.256 227.5,174C 229.392,173.027 231.392,172.36 233.5,172C 243.826,171.285 254.159,170.785 264.5,170.5 Z"/></g>
<g><path style="opacity:1" fill="#3acddc" d="M 265.5,151.5 C 265.5,152.167 265.833,152.5 266.5,152.5C 267.084,157.499 267.251,162.499 267,167.5C 266.623,168.942 265.79,169.942 264.5,170.5C 254.159,170.785 243.826,171.285 233.5,172C 231.392,172.36 229.392,173.027 227.5,174C 228.03,175.256 228.03,176.756 227.5,178.5C 225.426,181.078 222.926,183.078 220,184.5C 218.298,188.438 216.131,192.104 213.5,195.5C 213.709,196.086 214.043,196.586 214.5,197C 213.638,199.734 212.805,199.901 212,197.5C 209.693,198.833 207.859,200.666 206.5,203C 205.552,203.483 204.552,203.649 203.5,203.5C 203.657,204.873 203.49,206.207 203,207.5C 200.642,209.024 198.809,211.024 197.5,213.5C 198.043,214.864 198.21,216.197 198,217.5C 195.667,219.167 193.333,220.833 191,222.5C 190.517,223.448 190.351,224.448 190.5,225.5C 186.703,226.66 182.87,227.66 179,228.5C 174.794,226.095 172.627,222.428 172.5,217.5C 173.458,217.953 174.292,218.619 175,219.5C 176.324,216.756 178.491,215.423 181.5,215.5C 181.517,212.477 182.517,209.81 184.5,207.5C 187.5,206 190.5,204.5 193.5,203C 197.988,198.699 202.488,194.532 207,190.5C 207.487,186.509 209.654,183.842 213.5,182.5C 214.611,178.056 216.944,174.389 220.5,171.5C 227.857,169.495 235.19,167.495 242.5,165.5C 244.122,164.067 245.455,162.401 246.5,160.5C 248.225,159.985 249.892,159.318 251.5,158.5C 250.975,157.808 250.308,157.308 249.5,157C 253.813,157.245 258.147,157.245 262.5,157C 258.976,155.904 255.31,155.071 251.5,154.5C 250.263,153.719 249.263,152.719 248.5,151.5C 243.014,150.185 237.68,150.185 232.5,151.5C 226.703,153.421 220.703,154.588 214.5,155C 214.167,155.333 213.833,155.667 213.5,156C 216.063,156.763 216.063,157.263 213.5,157.5C 210.905,156.763 208.238,156.763 205.5,157.5C 221.975,150.122 239.309,147.622 257.5,150C 260.207,150.395 262.873,150.895 265.5,151.5 Z"/></g>
<g><path style="opacity:1" fill="#49c6e0" d="M 266.5,152.5 C 270.73,159.532 270.396,166.365 265.5,173C 260.789,175.414 255.789,177.08 250.5,178C 251.563,179.188 252.897,179.688 254.5,179.5C 254.5,180.5 254.5,181.5 254.5,182.5C 251.807,182.572 249.14,182.905 246.5,183.5C 242.899,185.139 239.233,186.472 235.5,187.5C 235.881,189.942 235.214,190.609 233.5,189.5C 231.729,190.035 231.396,190.869 232.5,192C 231.234,192.309 230.067,192.809 229,193.5C 227.876,198.271 226.543,202.938 225,207.5C 220.438,208.853 215.938,210.52 211.5,212.5C 211.196,211.85 210.863,211.183 210.5,210.5C 213.563,202.277 218.897,196.11 226.5,192C 225.253,190.506 225.253,189.006 226.5,187.5C 229.399,184.902 232.399,182.569 235.5,180.5C 236.689,179.571 238.022,179.238 239.5,179.5C 239.261,177.533 239.594,175.699 240.5,174C 248.692,173.163 256.692,171.997 264.5,170.5C 265.79,169.942 266.623,168.942 267,167.5C 267.251,162.499 267.084,157.499 266.5,152.5 Z"/></g>
<g><path style="opacity:1" fill="#68a2e8" d="M 287.5,159.5 C 289.832,163.971 289.999,168.637 288,173.5C 283.479,177.683 278.646,181.517 273.5,185C 268.5,185.695 263.833,187.195 259.5,189.5C 259.5,189.167 259.5,188.833 259.5,188.5C 260.167,187.167 260.833,185.833 261.5,184.5C 265.232,181.717 267.899,178.05 269.5,173.5C 276.572,171.095 281.239,166.428 283.5,159.5C 284.833,159.5 286.167,159.5 287.5,159.5 Z"/></g>
<g><path style="opacity:1" fill="#9b7eed" d="M 298.5,165.5 C 308.807,171.474 317.14,179.474 323.5,189.5C 322.833,189.167 322.167,188.833 321.5,188.5C 318.754,183.921 314.92,180.587 310,178.5C 308.503,179.477 307.003,180.477 305.5,181.5C 301.288,178.675 299.622,180.008 300.5,185.5C 301.833,185.5 303.167,185.5 304.5,185.5C 303.767,190.445 302.434,195.112 300.5,199.5C 300.5,198.833 300.5,198.167 300.5,197.5C 301.008,195.135 301.675,192.801 302.5,190.5C 301.687,189.186 300.687,188.019 299.5,187C 294.063,186.757 288.729,185.924 283.5,184.5C 285.667,181.5 287.833,178.5 290,175.5C 290.49,174.207 290.657,172.873 290.5,171.5C 291.468,169.393 291.802,167.059 291.5,164.5C 293.806,164.993 296.139,165.326 298.5,165.5 Z"/></g>
<g><path style="opacity:1" fill="#4fbee1" d="M 265.5,151.5 C 270.165,152.078 274.499,153.411 278.5,155.5C 278.881,156.931 279.881,157.764 281.5,158C 275.354,163.814 269.521,169.981 264,176.5C 263.725,179.412 262.891,182.079 261.5,184.5C 259.75,185.742 258.083,187.242 256.5,189C 250.804,189.17 245.138,189.67 239.5,190.5C 238.672,191.415 237.672,192.081 236.5,192.5C 232.258,198.634 228.591,204.967 225.5,211.5C 223.801,211.34 222.134,211.506 220.5,212C 215.374,214.482 210.374,217.149 205.5,220C 204.55,222.91 202.55,224.077 199.5,223.5C 196.833,224.167 194.167,224.833 191.5,225.5C 196.852,222.662 201.518,218.829 205.5,214C 207.518,213.495 209.518,212.995 211.5,212.5C 215.938,210.52 220.438,208.853 225,207.5C 226.543,202.938 227.876,198.271 229,193.5C 230.067,192.809 231.234,192.309 232.5,192C 231.396,190.869 231.729,190.035 233.5,189.5C 235.214,190.609 235.881,189.942 235.5,187.5C 239.233,186.472 242.899,185.139 246.5,183.5C 249.14,182.905 251.807,182.572 254.5,182.5C 254.5,181.5 254.5,180.5 254.5,179.5C 252.897,179.688 251.563,179.188 250.5,178C 255.789,177.08 260.789,175.414 265.5,173C 270.396,166.365 270.73,159.532 266.5,152.5C 265.833,152.5 265.5,152.167 265.5,151.5 Z"/></g>
<g><path style="opacity:1" fill="#b773f7" d="M 321.5,188.5 C 322.167,188.833 322.833,189.167 323.5,189.5C 323.75,191.941 324.75,193.941 326.5,195.5C 324.501,196.857 323.335,196.19 323,193.5C 321.229,195.584 319.896,197.918 319,200.5C 318.667,200.167 318.333,199.833 318,199.5C 316.951,201.107 315.451,201.773 313.5,201.5C 311.835,205.032 310.335,208.699 309,212.5C 305.885,214.647 303.052,217.147 300.5,220C 301.305,221.113 301.972,222.279 302.5,223.5C 301.504,223.586 300.671,223.252 300,222.5C 299.888,219.553 298.388,218.22 295.5,218.5C 294.941,212.172 296.941,206.839 301.5,202.5C 303.508,204.762 303.841,204.262 302.5,201C 307.098,199.402 310.431,196.402 312.5,192C 309.635,189.597 309.801,188.764 313,189.5C 313.333,188.833 313.667,188.167 314,187.5C 316.435,187.357 318.935,187.69 321.5,188.5 Z"/></g>
<g><path style="opacity:1" fill="#7eabe9" d="M 259.5,188.5 C 259.5,188.833 259.5,189.167 259.5,189.5C 260.812,192.024 261.312,194.691 261,197.5C 260.333,198.833 259.667,198.833 259,197.5C 254.193,202.633 250.193,208.3 247,214.5C 245.29,216.38 243.457,218.046 241.5,219.5C 239.403,219.023 237.403,218.357 235.5,217.5C 234.388,214.054 232.055,212.054 228.5,211.5C 230.694,210.234 233.028,210.234 235.5,211.5C 237.696,206.436 240.862,202.103 245,198.5C 245.212,196.22 246.045,194.22 247.5,192.5C 251.601,191.259 255.601,189.926 259.5,188.5 Z"/></g>
<g><path style="opacity:1" fill="#28c5d4" d="M 205.5,157.5 C 204.431,160.076 202.765,162.243 200.5,164C 201.996,165.331 203.329,166.831 204.5,168.5C 203.667,168.833 202.833,169.167 202,169.5C 197.533,166.873 193.533,167.539 190,171.5C 185.957,178.434 181.457,185.101 176.5,191.5C 175.534,193.396 175.201,195.396 175.5,197.5C 174.883,197.611 174.383,197.944 174,198.5C 173.819,201.695 173.319,204.695 172.5,207.5C 172.657,206.127 172.49,204.793 172,203.5C 170.201,203.279 168.368,202.946 166.5,202.5C 165.571,201.311 165.238,199.978 165.5,198.5C 164.167,198.5 162.833,198.5 161.5,198.5C 160.386,203.629 159.719,203.629 159.5,198.5C 169.865,179.308 185.198,165.642 205.5,157.5 Z"/></g>
<g><path style="opacity:1" fill="#c860dc" d="M 347.5,197.5 C 349.167,197.5 350.833,197.5 352.5,197.5C 352.04,200.957 350.04,202.623 346.5,202.5C 346.5,201.167 346.5,199.833 346.5,198.5C 346.5,197.833 346.833,197.5 347.5,197.5 Z"/></g>
<g><path style="opacity:0.829" fill="#7f408b" d="M 414.5,201.5 C 403.167,200.167 391.833,200.167 380.5,201.5C 386.441,200.089 392.608,199.423 399,199.5C 404.421,199.326 409.587,199.993 414.5,201.5 Z"/></g>
<g><path style="opacity:1" fill="#854a93" d="M 347.5,197.5 C 349.288,196.378 351.288,196.211 353.5,197C 354.847,201.996 352.847,204.329 347.5,204C 344.062,202.555 343.729,200.722 346.5,198.5C 346.5,199.833 346.5,201.167 346.5,202.5C 350.04,202.623 352.04,200.957 352.5,197.5C 350.833,197.5 349.167,197.5 347.5,197.5 Z"/></g>
<g><path style="opacity:1" fill="#a17ef2" d="M 294.5,191.5 C 296.169,196.809 295.503,201.809 292.5,206.5C 290.15,208.687 288.15,211.187 286.5,214C 282.916,216.441 279.25,218.608 275.5,220.5C 267.094,221.264 263.927,217.598 266,209.5C 267.675,208.405 268.842,206.905 269.5,205C 271.5,204.667 273.5,204.333 275.5,204C 278.47,194.842 284.803,190.675 294.5,191.5 Z"/></g>
<g><path style="opacity:1" fill="#83498d" d="M 365.5,203.5 C 367.635,205.369 370.302,206.036 373.5,205.5C 367.688,206.577 361.688,207.243 355.5,207.5C 354.209,207.737 353.209,207.404 352.5,206.5C 356.721,205.122 361.054,204.122 365.5,203.5 Z"/></g>
<g><path style="opacity:1" fill="#c36df9" d="M 326.5,195.5 C 327.58,197.996 328.914,200.33 330.5,202.5C 328.9,203.252 327.4,204.252 326,205.5C 324.875,208.89 323.375,212.057 321.5,215C 319.833,215.333 318.167,215.667 316.5,216C 318.228,220.001 316.894,222.334 312.5,223C 313.167,224 313.833,225 314.5,226C 318.729,226.729 321.062,229.229 321.5,233.5C 319.866,232.793 318.532,231.627 317.5,230C 314.374,229.01 311.374,227.844 308.5,226.5C 307.089,224.461 305.089,223.461 302.5,223.5C 301.972,222.279 301.305,221.113 300.5,220C 303.052,217.147 305.885,214.647 309,212.5C 310.335,208.699 311.835,205.032 313.5,201.5C 315.451,201.773 316.951,201.107 318,199.5C 318.333,199.833 318.667,200.167 319,200.5C 319.896,197.918 321.229,195.584 323,193.5C 323.335,196.19 324.501,196.857 326.5,195.5 Z"/></g>
<g><path style="opacity:0.863" fill="#543958" d="M 352.5,206.5 C 353.209,207.404 354.209,207.737 355.5,207.5C 350.368,209.077 345.035,209.91 339.5,210C 343.71,208.364 348.044,207.197 352.5,206.5 Z"/></g>
<g><path style="opacity:1" fill="#854892" d="M 415.5,201.5 C 421.994,205.083 423.16,210.083 419,216.5C 418.184,217.823 417.017,218.489 415.5,218.5C 417.61,216.143 418.944,213.309 419.5,210C 418.782,206.81 417.449,203.977 415.5,201.5 Z"/></g>
<g><path style="opacity:1" fill="#d164f9" d="M 330.5,202.5 C 330.52,204.143 329.853,205.476 328.5,206.5C 329.75,209.049 331.75,210.382 334.5,210.5C 336.227,216.515 338.06,222.515 340,228.5C 340.667,230.5 340.667,232.5 340,234.5C 335.834,233.818 332.334,235.318 329.5,239C 326.691,240.741 323.691,241.908 320.5,242.5C 321.159,239.545 321.492,236.545 321.5,233.5C 321.062,229.229 318.729,226.729 314.5,226C 313.833,225 313.167,224 312.5,223C 316.894,222.334 318.228,220.001 316.5,216C 318.167,215.667 319.833,215.333 321.5,215C 323.375,212.057 324.875,208.89 326,205.5C 327.4,204.252 328.9,203.252 330.5,202.5 Z"/></g>
<g><path style="opacity:1" fill="#8ea1ed" d="M 287.5,159.5 C 291.655,160.742 295.322,162.742 298.5,165.5C 296.139,165.326 293.806,164.993 291.5,164.5C 291.802,167.059 291.468,169.393 290.5,171.5C 288.377,176.454 284.71,179.954 279.5,182C 278.833,183 278.167,184 277.5,185C 272.891,187.144 268.224,188.977 263.5,190.5C 268.12,191.493 272.786,191.827 277.5,191.5C 275.864,195.557 272.864,198.557 268.5,200.5C 266.552,204.061 264.886,207.727 263.5,211.5C 262.461,215.342 262.461,219.342 263.5,223.5C 261.533,223.739 259.699,223.406 258,222.5C 257.86,225.043 257.194,227.377 256,229.5C 254.847,227.503 253.347,227.17 251.5,228.5C 248.574,231.355 246.407,234.689 245,238.5C 240.913,239.972 238.746,242.972 238.5,247.5C 237.992,238.865 237.326,230.199 236.5,221.5C 236.167,220.167 235.833,218.833 235.5,217.5C 237.403,218.357 239.403,219.023 241.5,219.5C 243.457,218.046 245.29,216.38 247,214.5C 250.193,208.3 254.193,202.633 259,197.5C 259.667,198.833 260.333,198.833 261,197.5C 261.312,194.691 260.812,192.024 259.5,189.5C 263.833,187.195 268.5,185.695 273.5,185C 278.646,181.517 283.479,177.683 288,173.5C 289.999,168.637 289.832,163.971 287.5,159.5 Z"/></g>
<g><path style="opacity:1" fill="#3ab8dc" d="M 159.5,198.5 C 159.719,203.629 160.386,203.629 161.5,198.5C 162.833,198.5 164.167,198.5 165.5,198.5C 165.238,199.978 165.571,201.311 166.5,202.5C 168.368,202.946 170.201,203.279 172,203.5C 172.49,204.793 172.657,206.127 172.5,207.5C 171.348,212.985 171.182,218.651 172,224.5C 173.421,226.405 174.588,228.405 175.5,230.5C 173.006,229.367 170.506,228.367 168,227.5C 167.674,230.332 168.174,232.999 169.5,235.5C 167.488,234.986 165.488,234.82 163.5,235C 162.382,237.346 160.715,239.179 158.5,240.5C 157.065,239.176 156.065,237.51 155.5,235.5C 154.289,237.422 152.956,239.255 151.5,241C 152.833,243.667 154.167,246.333 155.5,249C 154.5,249.5 153.5,250 152.5,250.5C 150.768,248.717 149.268,246.717 148,244.5C 147.536,245.094 147.369,245.761 147.5,246.5C 147.167,246.5 146.833,246.5 146.5,246.5C 146.5,244.167 146.5,241.833 146.5,239.5C 147.053,224.512 151.387,210.845 159.5,198.5 Z"/></g>
<g><path style="opacity:1" fill="#9d9bf0" d="M 263.5,211.5 C 263.34,213.199 263.506,214.866 264,216.5C 265.697,218.699 267.197,221.032 268.5,223.5C 266.909,225.774 265.409,228.108 264,230.5C 262.667,231.167 261.333,231.833 260,232.5C 258.519,235.956 256.852,239.289 255,242.5C 249.592,245.74 245.425,250.073 242.5,255.5C 240.833,255.5 239.167,255.5 237.5,255.5C 236.326,254.486 235.66,253.153 235.5,251.5C 235.5,247.5 235.5,243.5 235.5,239.5C 236.49,233.69 236.823,227.69 236.5,221.5C 237.326,230.199 237.992,238.865 238.5,247.5C 238.746,242.972 240.913,239.972 245,238.5C 246.407,234.689 248.574,231.355 251.5,228.5C 253.347,227.17 254.847,227.503 256,229.5C 257.194,227.377 257.86,225.043 258,222.5C 259.699,223.406 261.533,223.739 263.5,223.5C 262.461,219.342 262.461,215.342 263.5,211.5 Z"/></g>
<g><path style="opacity:1" fill="#b87ff5" d="M 321.5,188.5 C 318.935,187.69 316.435,187.357 314,187.5C 313.667,188.167 313.333,188.833 313,189.5C 309.801,188.764 309.635,189.597 312.5,192C 310.431,196.402 307.098,199.402 302.5,201C 303.841,204.262 303.508,204.762 301.5,202.5C 296.941,206.839 294.941,212.172 295.5,218.5C 298.388,218.22 299.888,219.553 300,222.5C 300.671,223.252 301.504,223.586 302.5,223.5C 305.089,223.461 307.089,224.461 308.5,226.5C 307.882,228.423 308.215,230.423 309.5,232.5C 304.096,233.904 298.762,235.237 293.5,236.5C 289.57,238.759 286.237,241.759 283.5,245.5C 278.38,247.274 274.047,250.274 270.5,254.5C 266.167,256.667 261.833,258.833 257.5,261C 252.922,262.36 248.255,263.193 243.5,263.5C 236.245,262.062 228.912,261.395 221.5,261.5C 226.676,260.296 232.009,260.296 237.5,261.5C 243.874,259.498 249.874,257.165 255.5,254.5C 255.791,253.351 256.624,252.684 258,252.5C 262.477,251.82 266.977,251.32 271.5,251C 274.833,248.667 278.167,246.333 281.5,244C 278.312,242.684 274.978,242.184 271.5,242.5C 268.115,229.429 272.949,225.762 286,231.5C 287.867,230.623 289.034,229.123 289.5,227C 291.519,226.55 293.352,225.717 295,224.5C 294.307,222.618 293.474,220.618 292.5,218.5C 294.019,211.587 296.686,205.254 300.5,199.5C 302.434,195.112 303.767,190.445 304.5,185.5C 303.167,185.5 301.833,185.5 300.5,185.5C 299.622,180.008 301.288,178.675 305.5,181.5C 307.003,180.477 308.503,179.477 310,178.5C 314.92,180.587 318.754,183.921 321.5,188.5 Z"/></g>
<g><path style="opacity:1" fill="#b452ca" d="M 414.5,201.5 C 414.833,201.5 415.167,201.5 415.5,201.5C 417.449,203.977 418.782,206.81 419.5,210C 418.944,213.309 417.61,216.143 415.5,218.5C 412.562,220.934 409.729,223.601 407,226.5C 405.727,229.489 404.561,232.489 403.5,235.5C 399.36,245.896 391.693,249.396 380.5,246C 375.524,244.56 370.524,243.227 365.5,242C 359.843,240.282 355.343,241.782 352,246.5C 350.576,249.648 349.076,252.648 347.5,255.5C 346.404,257.103 345.07,258.603 343.5,260C 342.517,260.591 341.85,260.257 341.5,259C 342.079,257.086 343.079,255.419 344.5,254C 342.431,248.694 341.431,243.194 341.5,237.5C 344.85,237.665 348.183,237.498 351.5,237C 349.956,236.71 348.623,236.044 347.5,235C 358.777,233.617 369.777,231.95 380.5,230C 379.572,229.612 378.905,228.945 378.5,228C 380.013,226.121 380.679,223.954 380.5,221.5C 380.859,219.629 381.859,218.129 383.5,217C 387.965,216.028 391.631,213.862 394.5,210.5C 392.851,208.005 390.517,206.505 387.5,206C 382.845,205.501 378.179,205.334 373.5,205.5C 370.302,206.036 367.635,205.369 365.5,203.5C 370.362,202.1 375.362,201.434 380.5,201.5C 391.833,200.167 403.167,200.167 414.5,201.5 Z"/></g>
<g><path style="opacity:1" fill="#48b2e2" d="M 199.5,223.5 C 198.206,225.328 197.206,227.328 196.5,229.5C 193.544,230.485 190.544,231.485 187.5,232.5C 188.167,233.167 188.833,233.833 189.5,234.5C 184.12,238.19 178.453,241.356 172.5,244C 168.784,248.663 166.118,253.83 164.5,259.5C 162.372,260.629 160.039,260.796 157.5,260C 153.564,255.904 150.23,251.404 147.5,246.5C 147.369,245.761 147.536,245.094 148,244.5C 149.268,246.717 150.768,248.717 152.5,250.5C 153.5,250 154.5,249.5 155.5,249C 154.167,246.333 152.833,243.667 151.5,241C 152.956,239.255 154.289,237.422 155.5,235.5C 156.065,237.51 157.065,239.176 158.5,240.5C 160.715,239.179 162.382,237.346 163.5,235C 165.488,234.82 167.488,234.986 169.5,235.5C 168.174,232.999 167.674,230.332 168,227.5C 170.506,228.367 173.006,229.367 175.5,230.5C 180.923,230.476 186.257,229.81 191.5,228.5C 191.5,227.5 191.5,226.5 191.5,225.5C 194.167,224.833 196.833,224.167 199.5,223.5 Z"/></g>
<g><path style="opacity:1" fill="#61ade5" d="M 261.5,184.5 C 260.833,185.833 260.167,187.167 259.5,188.5C 255.601,189.926 251.601,191.259 247.5,192.5C 246.045,194.22 245.212,196.22 245,198.5C 240.862,202.103 237.696,206.436 235.5,211.5C 233.028,210.234 230.694,210.234 228.5,211.5C 224.427,212.587 222.761,215.254 223.5,219.5C 220.303,220.112 218.969,222.112 219.5,225.5C 222.572,226.372 224.905,228.205 226.5,231C 225.882,234.525 224.549,235.025 222.5,232.5C 221.914,232.709 221.414,233.043 221,233.5C 220.461,236.529 219.794,239.529 219,242.5C 217.644,243.38 216.144,243.714 214.5,243.5C 215.039,238.253 213.206,234.253 209,231.5C 207.477,233.354 205.644,234.854 203.5,236C 198.231,237.106 192.897,237.773 187.5,238C 186.584,238.278 185.918,238.778 185.5,239.5C 184.508,239.328 183.842,239.662 183.5,240.5C 180.259,242.766 176.759,244.766 173,246.5C 169.897,250.313 168.064,254.646 167.5,259.5C 166.5,259.5 165.5,259.5 164.5,259.5C 166.118,253.83 168.784,248.663 172.5,244C 178.453,241.356 184.12,238.19 189.5,234.5C 188.833,233.833 188.167,233.167 187.5,232.5C 190.544,231.485 193.544,230.485 196.5,229.5C 197.206,227.328 198.206,225.328 199.5,223.5C 202.55,224.077 204.55,222.91 205.5,220C 210.374,217.149 215.374,214.482 220.5,212C 222.134,211.506 223.801,211.34 225.5,211.5C 228.591,204.967 232.258,198.634 236.5,192.5C 237.672,192.081 238.672,191.415 239.5,190.5C 245.138,189.67 250.804,189.17 256.5,189C 258.083,187.242 259.75,185.742 261.5,184.5 Z"/></g>
<g><path style="opacity:1" fill="#7ba5eb" d="M 223.5,219.5 C 223.5,221.167 223.5,222.833 223.5,224.5C 227.641,224.576 229.308,226.743 228.5,231C 228.363,233.898 227.863,236.731 227,239.5C 225.13,241.405 223.63,243.572 222.5,246C 214.458,249.086 210.292,246.586 210,238.5C 208.644,237.62 207.144,237.286 205.5,237.5C 198.815,238.057 192.148,238.724 185.5,239.5C 185.918,238.778 186.584,238.278 187.5,238C 192.897,237.773 198.231,237.106 203.5,236C 205.644,234.854 207.477,233.354 209,231.5C 213.206,234.253 215.039,238.253 214.5,243.5C 216.144,243.714 217.644,243.38 219,242.5C 219.794,239.529 220.461,236.529 221,233.5C 221.414,233.043 221.914,232.709 222.5,232.5C 224.549,235.025 225.882,234.525 226.5,231C 224.905,228.205 222.572,226.372 219.5,225.5C 218.969,222.112 220.303,220.112 223.5,219.5 Z"/></g>
<g><path style="opacity:0.239" fill="#36143d" d="M 341.5,231.5 C 345.735,232.436 350.069,232.769 354.5,232.5C 350.366,233.485 346.032,233.818 341.5,233.5C 341.5,232.833 341.5,232.167 341.5,231.5 Z"/></g>
<g><path style="opacity:1" fill="#7494ea" d="M 205.5,237.5 C 203.657,241.857 201.157,245.857 198,249.5C 197.505,251.473 197.338,253.473 197.5,255.5C 195.5,255.5 193.5,255.5 191.5,255.5C 191.343,256.873 191.51,258.207 192,259.5C 193.243,258.664 194.41,258.997 195.5,260.5C 186.043,261.111 176.71,261.444 167.5,261.5C 168.456,260.341 169.456,259.174 170.5,258C 170.355,257.228 170.022,256.561 169.5,256C 171.697,253.114 173.53,249.948 175,246.5C 177.567,245.73 180.067,244.73 182.5,243.5C 183.386,242.675 183.719,241.675 183.5,240.5C 183.842,239.662 184.508,239.328 185.5,239.5C 192.148,238.724 198.815,238.057 205.5,237.5 Z"/></g>
<g><path style="opacity:1" fill="#b290f4" d="M 294.5,191.5 C 296.344,193.279 297.01,195.612 296.5,198.5C 297.959,198.567 299.292,198.234 300.5,197.5C 300.5,198.167 300.5,198.833 300.5,199.5C 296.686,205.254 294.019,211.587 292.5,218.5C 293.474,220.618 294.307,222.618 295,224.5C 293.352,225.717 291.519,226.55 289.5,227C 289.034,229.123 287.867,230.623 286,231.5C 272.949,225.762 268.115,229.429 271.5,242.5C 274.978,242.184 278.312,242.684 281.5,244C 278.167,246.333 274.833,248.667 271.5,251C 266.977,251.32 262.477,251.82 258,252.5C 256.624,252.684 255.791,253.351 255.5,254.5C 251.174,255.163 246.841,255.829 242.5,256.5C 240.631,256.493 238.964,256.16 237.5,255.5C 239.167,255.5 240.833,255.5 242.5,255.5C 244.861,255.326 247.194,254.993 249.5,254.5C 249.48,252.857 250.147,251.524 251.5,250.5C 254.748,250.356 258.081,249.522 261.5,248C 260.643,247.311 259.977,246.478 259.5,245.5C 261.594,243.396 264.094,242.063 267,241.5C 265.77,233.434 268.937,228.268 276.5,226C 274.071,225.549 273.904,224.715 276,223.5C 277.073,224.28 278.24,224.113 279.5,223C 277.934,222.392 276.6,221.558 275.5,220.5C 279.25,218.608 282.916,216.441 286.5,214C 288.15,211.187 290.15,208.687 292.5,206.5C 295.503,201.809 296.169,196.809 294.5,191.5 Z"/></g>
<g><path style="opacity:1" fill="#da7bfb" d="M 308.5,226.5 C 311.374,227.844 314.374,229.01 317.5,230C 318.532,231.627 319.866,232.793 321.5,233.5C 321.492,236.545 321.159,239.545 320.5,242.5C 319.653,243.966 318.32,244.8 316.5,245C 312.23,246.075 307.897,246.575 303.5,246.5C 303.5,243.5 303.5,240.5 303.5,237.5C 300.214,236.793 296.881,236.46 293.5,236.5C 298.762,235.237 304.096,233.904 309.5,232.5C 308.215,230.423 307.882,228.423 308.5,226.5 Z"/></g>
<g><path style="opacity:1" fill="#a394f1" d="M 290.5,171.5 C 290.657,172.873 290.49,174.207 290,175.5C 287.833,178.5 285.667,181.5 283.5,184.5C 288.729,185.924 294.063,186.757 299.5,187C 300.687,188.019 301.687,189.186 302.5,190.5C 301.675,192.801 301.008,195.135 300.5,197.5C 299.292,198.234 297.959,198.567 296.5,198.5C 297.01,195.612 296.344,193.279 294.5,191.5C 284.803,190.675 278.47,194.842 275.5,204C 273.5,204.333 271.5,204.667 269.5,205C 268.842,206.905 267.675,208.405 266,209.5C 263.927,217.598 267.094,221.264 275.5,220.5C 276.6,221.558 277.934,222.392 279.5,223C 278.24,224.113 277.073,224.28 276,223.5C 273.904,224.715 274.071,225.549 276.5,226C 268.937,228.268 265.77,233.434 267,241.5C 264.094,242.063 261.594,243.396 259.5,245.5C 259.977,246.478 260.643,247.311 261.5,248C 258.081,249.522 254.748,250.356 251.5,250.5C 250.147,251.524 249.48,252.857 249.5,254.5C 247.194,254.993 244.861,255.326 242.5,255.5C 245.425,250.073 249.592,245.74 255,242.5C 256.852,239.289 258.519,235.956 260,232.5C 261.333,231.833 262.667,231.167 264,230.5C 265.409,228.108 266.909,225.774 268.5,223.5C 267.197,221.032 265.697,218.699 264,216.5C 263.506,214.866 263.34,213.199 263.5,211.5C 264.886,207.727 266.552,204.061 268.5,200.5C 272.864,198.557 275.864,195.557 277.5,191.5C 272.786,191.827 268.12,191.493 263.5,190.5C 268.224,188.977 272.891,187.144 277.5,185C 278.167,184 278.833,183 279.5,182C 284.71,179.954 288.377,176.454 290.5,171.5 Z"/></g>
<g><path style="opacity:1" fill="#c76bf7" d="M 293.5,236.5 C 296.881,236.46 300.214,236.793 303.5,237.5C 303.5,240.5 303.5,243.5 303.5,246.5C 296.863,245.724 290.196,245.391 283.5,245.5C 286.237,241.759 289.57,238.759 293.5,236.5 Z"/></g>
<g><path style="opacity:1" fill="#8f87ef" d="M 235.5,239.5 C 235.5,243.5 235.5,247.5 235.5,251.5C 234.778,247.609 233.944,243.609 233,239.5C 229.322,243.002 227.489,247.335 227.5,252.5C 225.234,253.432 223.234,254.766 221.5,256.5C 222.167,257.167 222.833,257.833 223.5,258.5C 219.468,259.855 215.468,261.189 211.5,262.5C 211.5,263.5 211.5,264.5 211.5,265.5C 208.789,266.855 206.123,268.189 203.5,269.5C 199.21,269.802 195.21,269.136 191.5,267.5C 194.187,267.664 196.854,267.497 199.5,267C 198.328,266.581 197.328,265.915 196.5,265C 200.68,263.493 201.014,261.993 197.5,260.5C 198.528,258.639 200.028,257.305 202,256.5C 203.009,254.975 203.509,253.308 203.5,251.5C 204.675,251.719 205.675,251.386 206.5,250.5C 207.137,248.697 208.303,247.364 210,246.5C 213.723,249.89 217.89,250.39 222.5,248C 224.333,245.5 226.5,243.333 229,241.5C 229.351,237.444 230.685,233.777 233,230.5C 233.645,231.646 234.478,232.646 235.5,233.5C 234.377,235.482 234.377,237.482 235.5,239.5 Z"/></g>
<g><path style="opacity:1" fill="#b04fcb" d="M 323.5,189.5 C 333.555,201.634 339.555,215.634 341.5,231.5C 341.5,232.167 341.5,232.833 341.5,233.5C 340.411,235.117 338.744,235.95 336.5,236C 337.202,239.466 337.869,242.966 338.5,246.5C 336.052,250.237 334.552,249.571 334,244.5C 332.636,245.696 331.136,246.696 329.5,247.5C 327.37,247.242 325.204,246.909 323,246.5C 322.683,248.301 322.016,248.634 321,247.5C 315.844,248.884 310.844,250.884 306,253.5C 303.977,251.041 301.644,249.708 299,249.5C 297.266,250.249 295.433,250.749 293.5,251C 292.549,251.718 292.383,252.551 293,253.5C 296,253.5 299,253.5 302,253.5C 302.5,254 303,254.5 303.5,255C 298.914,255.197 294.414,255.697 290,256.5C 289.667,256.167 289.333,255.833 289,255.5C 288.196,256.804 287.029,257.471 285.5,257.5C 282.044,255.709 278.378,254.876 274.5,255C 275.38,256.356 275.714,257.856 275.5,259.5C 268.404,259.096 261.738,260.596 255.5,264C 248.253,264.185 241.087,264.685 234,265.5C 231.338,265.005 228.671,264.672 226,264.5C 223.976,264.8 223.476,265.633 224.5,267C 220.362,267.821 216.529,269.321 213,271.5C 205.935,271.815 198.768,271.815 191.5,271.5C 191.5,272.833 191.5,274.167 191.5,275.5C 184.065,274.765 177.065,275.765 170.5,278.5C 169.833,278.167 169.167,277.833 168.5,277.5C 169.313,276.186 170.313,275.019 171.5,274C 174.361,273.46 177.028,272.46 179.5,271C 187.677,270.829 195.677,270.329 203.5,269.5C 206.123,268.189 208.789,266.855 211.5,265.5C 214.59,263.624 217.923,262.291 221.5,261.5C 228.912,261.395 236.245,262.062 243.5,263.5C 248.255,263.193 252.922,262.36 257.5,261C 261.833,258.833 266.167,256.667 270.5,254.5C 274.047,250.274 278.38,247.274 283.5,245.5C 290.196,245.391 296.863,245.724 303.5,246.5C 307.897,246.575 312.23,246.075 316.5,245C 318.32,244.8 319.653,243.966 320.5,242.5C 323.691,241.908 326.691,240.741 329.5,239C 332.334,235.318 335.834,233.818 340,234.5C 340.667,232.5 340.667,230.5 340,228.5C 338.06,222.515 336.227,216.515 334.5,210.5C 331.75,210.382 329.75,209.049 328.5,206.5C 329.853,205.476 330.52,204.143 330.5,202.5C 328.914,200.33 327.58,197.996 326.5,195.5C 324.75,193.941 323.75,191.941 323.5,189.5 Z"/></g>
<g><path style="opacity:1" fill="#808eec" d="M 228.5,211.5 C 232.055,212.054 234.388,214.054 235.5,217.5C 235.833,218.833 236.167,220.167 236.5,221.5C 236.823,227.69 236.49,233.69 235.5,239.5C 234.377,237.482 234.377,235.482 235.5,233.5C 234.478,232.646 233.645,231.646 233,230.5C 230.685,233.777 229.351,237.444 229,241.5C 226.5,243.333 224.333,245.5 222.5,248C 217.89,250.39 213.723,249.89 210,246.5C 208.303,247.364 207.137,248.697 206.5,250.5C 205.675,251.386 204.675,251.719 203.5,251.5C 203.509,253.308 203.009,254.975 202,256.5C 200.028,257.305 198.528,258.639 197.5,260.5C 201.014,261.993 200.68,263.493 196.5,265C 197.328,265.915 198.328,266.581 199.5,267C 196.854,267.497 194.187,267.664 191.5,267.5C 191.167,267.5 190.833,267.5 190.5,267.5C 189.71,266.206 188.71,265.039 187.5,264C 180.233,262.485 172.899,262.152 165.5,263C 162.239,264.479 158.906,265.645 155.5,266.5C 155.5,267.5 155.5,268.5 155.5,269.5C 153.784,269.629 152.117,269.962 150.5,270.5C 151.742,268.75 153.242,267.083 155,265.5C 155.483,264.552 155.649,263.552 155.5,262.5C 159.534,262.495 163.534,262.162 167.5,261.5C 176.71,261.444 186.043,261.111 195.5,260.5C 194.41,258.997 193.243,258.664 192,259.5C 191.51,258.207 191.343,256.873 191.5,255.5C 193.5,255.5 195.5,255.5 197.5,255.5C 197.338,253.473 197.505,251.473 198,249.5C 201.157,245.857 203.657,241.857 205.5,237.5C 207.144,237.286 208.644,237.62 210,238.5C 210.292,246.586 214.458,249.086 222.5,246C 223.63,243.572 225.13,241.405 227,239.5C 227.863,236.731 228.363,233.898 228.5,231C 229.308,226.743 227.641,224.576 223.5,224.5C 223.5,222.833 223.5,221.167 223.5,219.5C 222.761,215.254 224.427,212.587 228.5,211.5 Z"/></g>
<g><path style="opacity:0.616" fill="#1e4762" d="M 146.5,239.5 C 146.5,241.833 146.5,244.167 146.5,246.5C 146.36,252.536 146.693,258.536 147.5,264.5C 146.732,263.737 146.232,262.737 146,261.5C 145.178,253.988 145.345,246.655 146.5,239.5 Z"/></g>
<g><path style="opacity:1" fill="#35143b" d="M 403.5,235.5 C 403.5,237.167 403.5,238.833 403.5,240.5C 402.262,242.214 401.595,244.214 401.5,246.5C 395.625,247.9 389.625,248.733 383.5,249C 384.772,250.246 385.105,251.413 384.5,252.5C 382.253,251.626 379.92,251.292 377.5,251.5C 374.826,246.269 370.16,244.603 363.5,246.5C 363.5,245.5 363.5,244.5 363.5,243.5C 361.712,243.215 360.045,243.548 358.5,244.5C 359.376,245.251 360.376,245.751 361.5,246C 359.431,246.324 359.098,247.158 360.5,248.5C 358.146,252.377 354.646,254.377 350,254.5C 349.667,256.833 349.333,259.167 349,261.5C 345.927,264.731 343.094,268.064 340.5,271.5C 343.349,266.462 345.682,261.128 347.5,255.5C 349.076,252.648 350.576,249.648 352,246.5C 355.343,241.782 359.843,240.282 365.5,242C 370.524,243.227 375.524,244.56 380.5,246C 391.693,249.396 399.36,245.896 403.5,235.5 Z"/></g>
<g><path style="opacity:1" fill="#2a162c" d="M 403.5,240.5 C 404.163,247.04 402.163,252.54 397.5,257C 390.088,257.648 383.421,255.815 377.5,251.5C 379.92,251.292 382.253,251.626 384.5,252.5C 385.105,251.413 384.772,250.246 383.5,249C 389.625,248.733 395.625,247.9 401.5,246.5C 401.595,244.214 402.262,242.214 403.5,240.5 Z"/></g>
<g><path style="opacity:1" fill="#ad4cc5" d="M 380.5,221.5 C 380.679,223.954 380.013,226.121 378.5,228C 378.905,228.945 379.572,229.612 380.5,230C 369.777,231.95 358.777,233.617 347.5,235C 348.623,236.044 349.956,236.71 351.5,237C 348.183,237.498 344.85,237.665 341.5,237.5C 341.431,243.194 342.431,248.694 344.5,254C 343.079,255.419 342.079,257.086 341.5,259C 341.85,260.257 342.517,260.591 343.5,260C 345.07,258.603 346.404,257.103 347.5,255.5C 345.682,261.128 343.349,266.462 340.5,271.5C 339.699,273.042 339.366,274.708 339.5,276.5C 335.813,288.881 329.813,299.881 321.5,309.5C 321.5,308.167 321.5,306.833 321.5,305.5C 322.066,303.922 323.066,302.588 324.5,301.5C 325.308,299.577 325.808,297.577 326,295.5C 326.71,296.973 327.876,297.64 329.5,297.5C 330.338,294.314 331.338,291.147 332.5,288C 331.077,286.588 331.244,285.421 333,284.5C 333.333,285.167 333.667,285.833 334,286.5C 335.052,282.73 336.385,279.064 338,275.5C 338.765,273.934 338.598,272.601 337.5,271.5C 338.237,269.392 338.904,267.225 339.5,265C 338.069,262.708 337.236,260.208 337,257.5C 335.806,259.623 335.14,261.957 335,264.5C 328.794,267.228 322.294,268.061 315.5,267C 307.738,264.317 299.738,262.817 291.5,262.5C 285.206,262.155 279.54,263.822 274.5,267.5C 273.269,268.651 273.269,269.817 274.5,271C 273.325,274.691 271.492,275.191 269,272.5C 266.965,277.036 263.465,279.369 258.5,279.5C 254.057,278.2 249.724,276.7 245.5,275C 240.795,270.22 235.295,268.053 229,268.5C 228.333,265.833 227.667,265.833 227,268.5C 226.667,267.833 226.333,267.167 226,266.5C 224.562,267.9 223.729,269.567 223.5,271.5C 221.345,271.372 219.345,271.872 217.5,273C 212.793,278.465 206.793,281.465 199.5,282C 187.371,281.355 175.705,283.022 164.5,287C 162.602,288.417 160.936,289.917 159.5,291.5C 158.5,292.167 157.5,292.833 156.5,293.5C 155.167,293.5 153.833,293.5 152.5,293.5C 147.806,294.104 143.472,293.271 139.5,291C 135.113,290.774 130.779,290.274 126.5,289.5C 125.289,290.274 125.289,291.107 126.5,292C 123.8,292.253 121.133,292.253 118.5,292C 118.167,292.333 117.833,292.667 117.5,293C 121.378,294.065 121.378,294.899 117.5,295.5C 114.933,294.336 112.266,293.67 109.5,293.5C 109.5,294.5 109.5,295.5 109.5,296.5C 108.167,296.5 106.833,296.5 105.5,296.5C 103.02,291.862 100.353,287.362 97.5,283C 102.351,282.826 107.018,282.326 111.5,281.5C 115.288,281.691 118.288,280.358 120.5,277.5C 124.397,276.09 128.397,275.09 132.5,274.5C 137.493,274.916 142.493,275.249 147.5,275.5C 148.167,275.5 148.833,275.5 149.5,275.5C 149.833,275.5 150.167,275.5 150.5,275.5C 153.514,277.35 157.014,278.35 161,278.5C 162.888,278.204 164.722,277.704 166.5,277C 173.207,270.174 181.207,267.008 190.5,267.5C 190.833,267.5 191.167,267.5 191.5,267.5C 195.21,269.136 199.21,269.802 203.5,269.5C 195.677,270.329 187.677,270.829 179.5,271C 177.028,272.46 174.361,273.46 171.5,274C 170.313,275.019 169.313,276.186 168.5,277.5C 169.167,277.833 169.833,278.167 170.5,278.5C 177.065,275.765 184.065,274.765 191.5,275.5C 191.5,274.167 191.5,272.833 191.5,271.5C 198.768,271.815 205.935,271.815 213,271.5C 216.529,269.321 220.362,267.821 224.5,267C 223.476,265.633 223.976,264.8 226,264.5C 228.671,264.672 231.338,265.005 234,265.5C 241.087,264.685 248.253,264.185 255.5,264C 261.738,260.596 268.404,259.096 275.5,259.5C 275.714,257.856 275.38,256.356 274.5,255C 278.378,254.876 282.044,255.709 285.5,257.5C 287.029,257.471 288.196,256.804 289,255.5C 289.333,255.833 289.667,256.167 290,256.5C 294.414,255.697 298.914,255.197 303.5,255C 303,254.5 302.5,254 302,253.5C 299,253.5 296,253.5 293,253.5C 292.383,252.551 292.549,251.718 293.5,251C 295.433,250.749 297.266,250.249 299,249.5C 301.644,249.708 303.977,251.041 306,253.5C 310.844,250.884 315.844,248.884 321,247.5C 322.016,248.634 322.683,248.301 323,246.5C 325.204,246.909 327.37,247.242 329.5,247.5C 331.136,246.696 332.636,245.696 334,244.5C 334.552,249.571 336.052,250.237 338.5,246.5C 337.869,242.966 337.202,239.466 336.5,236C 338.744,235.95 340.411,235.117 341.5,233.5C 346.032,233.818 350.366,233.485 354.5,232.5C 360.988,232.196 367.322,231.03 373.5,229C 376.412,226.985 378.745,224.485 380.5,221.5 Z"/></g>
<g><path style="opacity:1" fill="#9b81f1" d="M 235.5,251.5 C 235.66,253.153 236.326,254.486 237.5,255.5C 238.964,256.16 240.631,256.493 242.5,256.5C 246.841,255.829 251.174,255.163 255.5,254.5C 249.874,257.165 243.874,259.498 237.5,261.5C 232.009,260.296 226.676,260.296 221.5,261.5C 217.923,262.291 214.59,263.624 211.5,265.5C 211.5,264.5 211.5,263.5 211.5,262.5C 215.468,261.189 219.468,259.855 223.5,258.5C 222.833,257.833 222.167,257.167 221.5,256.5C 223.234,254.766 225.234,253.432 227.5,252.5C 227.489,247.335 229.322,243.002 233,239.5C 233.944,243.609 234.778,247.609 235.5,251.5 Z"/></g>
<g><path style="opacity:1" fill="#2a162e" d="M 377.5,251.5 C 373.015,249.413 368.349,248.247 363.5,248C 358.998,255.518 354.498,263.018 350,270.5C 347.01,273.411 343.51,275.411 339.5,276.5C 339.366,274.708 339.699,273.042 340.5,271.5C 343.094,268.064 345.927,264.731 349,261.5C 349.333,259.167 349.667,256.833 350,254.5C 354.646,254.377 358.146,252.377 360.5,248.5C 359.098,247.158 359.431,246.324 361.5,246C 360.376,245.751 359.376,245.251 358.5,244.5C 360.045,243.548 361.712,243.215 363.5,243.5C 363.5,244.5 363.5,245.5 363.5,246.5C 370.16,244.603 374.826,246.269 377.5,251.5 Z"/></g>
<g><path style="opacity:1" fill="#579ce2" d="M 183.5,240.5 C 183.719,241.675 183.386,242.675 182.5,243.5C 180.067,244.73 177.567,245.73 175,246.5C 173.53,249.948 171.697,253.114 169.5,256C 170.022,256.561 170.355,257.228 170.5,258C 169.456,259.174 168.456,260.341 167.5,261.5C 163.534,262.162 159.534,262.495 155.5,262.5C 155.649,263.552 155.483,264.552 155,265.5C 153.242,267.083 151.742,268.75 150.5,270.5C 150.5,272.167 150.5,273.833 150.5,275.5C 150.167,275.5 149.833,275.5 149.5,275.5C 148.358,271.929 147.691,268.262 147.5,264.5C 146.693,258.536 146.36,252.536 146.5,246.5C 146.833,246.5 147.167,246.5 147.5,246.5C 150.23,251.404 153.564,255.904 157.5,260C 160.039,260.796 162.372,260.629 164.5,259.5C 165.5,259.5 166.5,259.5 167.5,259.5C 168.064,254.646 169.897,250.313 173,246.5C 176.759,244.766 180.259,242.766 183.5,240.5 Z"/></g>
<g><path style="opacity:1" fill="#91509e" d="M 136.5,259.5 C 138.167,259.5 139.833,259.5 141.5,259.5C 142.169,263.676 140.669,265.009 137,263.5C 136.51,262.207 136.343,260.873 136.5,259.5 Z"/></g>
<g><path style="opacity:1" fill="#66416d" d="M 115.5,264.5 C 115.158,263.662 114.492,263.328 113.5,263.5C 121.76,259.692 130.426,257.192 139.5,256C 131.503,258.943 123.503,261.776 115.5,264.5 Z"/></g>
<g><path style="opacity:1" fill="#b24ecc" d="M 337.5,271.5 C 334.639,272.631 331.639,273.298 328.5,273.5C 322.92,272.102 317.254,271.436 311.5,271.5C 306.112,270.653 300.779,269.487 295.5,268C 291.514,267.501 287.514,267.334 283.5,267.5C 282.761,267.369 282.094,267.536 281.5,268C 277.167,272.667 272.833,277.333 268.5,282C 262.878,283.631 257.211,283.631 251.5,282C 247.767,279.365 243.767,277.198 239.5,275.5C 235.6,272.962 231.266,272.128 226.5,273C 220.219,280.624 213.885,288.29 207.5,296C 202.608,299.059 197.275,300.225 191.5,299.5C 184.702,296.234 178.369,292.234 172.5,287.5C 167.899,288.065 163.566,289.399 159.5,291.5C 160.936,289.917 162.602,288.417 164.5,287C 175.705,283.022 187.371,281.355 199.5,282C 206.793,281.465 212.793,278.465 217.5,273C 219.345,271.872 221.345,271.372 223.5,271.5C 223.729,269.567 224.562,267.9 226,266.5C 226.333,267.167 226.667,267.833 227,268.5C 227.667,265.833 228.333,265.833 229,268.5C 235.295,268.053 240.795,270.22 245.5,275C 249.724,276.7 254.057,278.2 258.5,279.5C 263.465,279.369 266.965,277.036 269,272.5C 271.492,275.191 273.325,274.691 274.5,271C 273.269,269.817 273.269,268.651 274.5,267.5C 279.54,263.822 285.206,262.155 291.5,262.5C 299.738,262.817 307.738,264.317 315.5,267C 322.294,268.061 328.794,267.228 335,264.5C 335.14,261.957 335.806,259.623 337,257.5C 337.236,260.208 338.069,262.708 339.5,265C 338.904,267.225 338.237,269.392 337.5,271.5 Z"/></g>
<g><path style="opacity:1" fill="#7d7bec" d="M 190.5,267.5 C 181.207,267.008 173.207,270.174 166.5,277C 164.722,277.704 162.888,278.204 161,278.5C 157.014,278.35 153.514,277.35 150.5,275.5C 150.5,273.833 150.5,272.167 150.5,270.5C 152.117,269.962 153.784,269.629 155.5,269.5C 155.5,268.5 155.5,267.5 155.5,266.5C 158.906,265.645 162.239,264.479 165.5,263C 172.899,262.152 180.233,262.485 187.5,264C 188.71,265.039 189.71,266.206 190.5,267.5 Z"/></g>
<g><path style="opacity:1" fill="#7e3d8f" d="M 379.5,259.5 C 384.922,263.343 385.589,267.843 381.5,273C 375.215,276.454 369.048,276.287 363,272.5C 360.579,267.116 361.412,262.283 365.5,258C 370.562,255.717 375.229,256.217 379.5,259.5 Z"/></g>
<g><path style="opacity:1" fill="#9e41b7" d="M 379.5,259.5 C 381.635,262.807 382.635,266.474 382.5,270.5C 376.535,274.015 370.368,274.348 364,271.5C 363.255,267.149 364.088,263.149 366.5,259.5C 370.756,259.064 375.089,259.064 379.5,259.5 Z"/></g>
<g><path style="opacity:1" fill="#e773fd" d="M 283.5,267.5 C 287.514,267.334 291.514,267.501 295.5,268C 300.779,269.487 306.112,270.653 311.5,271.5C 315.455,272.596 319.455,273.929 323.5,275.5C 312.451,293.882 297.785,308.549 279.5,319.5C 278.5,319.5 277.5,319.5 276.5,319.5C 275.627,317.114 274.127,315.114 272,313.5C 271.333,308.5 271.333,303.5 272,298.5C 276.295,288.306 280.128,277.973 283.5,267.5 Z"/></g>
<g><path style="opacity:1" fill="#6b3877" d="M 132.5,274.5 C 137.579,273.174 142.579,273.507 147.5,275.5C 142.493,275.249 137.493,274.916 132.5,274.5 Z"/></g>
<g><path style="opacity:1" fill="#b754cd" d="M 90.5,284.5 C 88.1432,284.663 85.8098,284.497 83.5,284C 82.4639,282.224 82.4639,280.391 83.5,278.5C 84.2623,276.738 85.5956,275.738 87.5,275.5C 90.2565,275.184 92.7565,274.184 95,272.5C 96.6458,274.141 97.6458,273.807 98,271.5C 97.3809,274.394 96.7143,277.394 96,280.5C 94.207,282.025 92.3737,283.358 90.5,284.5 Z"/></g>
<g><path style="opacity:1" fill="#864596" d="M 120.5,277.5 C 118.288,280.358 115.288,281.691 111.5,281.5C 107.351,282.08 103.684,281.414 100.5,279.5C 107.329,280.804 113.996,280.137 120.5,277.5 Z"/></g>
<g><path style="opacity:1" fill="#ca5ee2" d="M 311.5,271.5 C 317.254,271.436 322.92,272.102 328.5,273.5C 331.639,273.298 334.639,272.631 337.5,271.5C 338.598,272.601 338.765,273.934 338,275.5C 336.385,279.064 335.052,282.73 334,286.5C 333.667,285.833 333.333,285.167 333,284.5C 331.244,285.421 331.077,286.588 332.5,288C 331.338,291.147 330.338,294.314 329.5,297.5C 327.876,297.64 326.71,296.973 326,295.5C 325.808,297.577 325.308,299.577 324.5,301.5C 323.066,302.588 322.066,303.922 321.5,305.5C 317.651,305.502 314.985,307.335 313.5,311C 311.443,311.305 309.443,311.305 307.5,311C 305.909,313.133 303.909,314.799 301.5,316C 294.419,318.771 287.086,319.937 279.5,319.5C 297.785,308.549 312.451,293.882 323.5,275.5C 319.455,273.929 315.455,272.596 311.5,271.5 Z"/></g>
<g><path style="opacity:1" fill="#a552b9" d="M 113.5,263.5 C 114.492,263.328 115.158,263.662 115.5,264.5C 110.564,267.642 105.564,270.809 100.5,274C 97.8761,275.969 97.8761,277.802 100.5,279.5C 103.684,281.414 107.351,282.08 111.5,281.5C 107.018,282.326 102.351,282.826 97.5,283C 100.353,287.362 103.02,291.862 105.5,296.5C 103.519,294.856 101.519,293.19 99.5,291.5C 99.1667,290.833 98.8333,290.167 98.5,289.5C 98.5858,288.504 98.2524,287.671 97.5,287C 95.1316,286.144 92.7983,285.31 90.5,284.5C 92.3737,283.358 94.207,282.025 96,280.5C 96.7143,277.394 97.3809,274.394 98,271.5C 97.6458,273.807 96.6458,274.141 95,272.5C 92.7565,274.184 90.2565,275.184 87.5,275.5C 95.3279,269.923 103.995,265.923 113.5,263.5 Z"/></g>
<g><path style="opacity:1" fill="#894999" d="M 83.5,278.5 C 82.4639,280.391 82.4639,282.224 83.5,284C 85.8098,284.497 88.1432,284.663 90.5,284.5C 92.7983,285.31 95.1316,286.144 97.5,287C 98.2524,287.671 98.5858,288.504 98.5,289.5C 93.2805,287.694 87.9472,286.194 82.5,285C 80.9797,282.448 81.3131,280.282 83.5,278.5 Z"/></g>
<g><path style="opacity:1" fill="#a043bc" d="M 239.5,283.5 C 239.5,283.833 239.5,284.167 239.5,284.5C 242.61,289.059 241.777,292.725 237,295.5C 227.574,298.64 223.574,295.306 225,285.5C 229.183,280.879 234.017,280.212 239.5,283.5 Z"/></g>
<g><path style="opacity:1" fill="#d465fc" d="M 283.5,267.5 C 280.128,277.973 276.295,288.306 272,298.5C 271.333,303.5 271.333,308.5 272,313.5C 274.127,315.114 275.627,317.114 276.5,319.5C 275.571,320.315 274.571,321.148 273.5,322C 269.329,322.669 265.329,323.836 261.5,325.5C 257.995,322.841 255.495,319.508 254,315.5C 253.841,309.459 254.341,303.459 255.5,297.5C 256.469,293.958 256.969,290.291 257,286.5C 251.064,284.949 245.564,282.449 240.5,279C 239.663,277.989 239.33,276.822 239.5,275.5C 243.767,277.198 247.767,279.365 251.5,282C 257.211,283.631 262.878,283.631 268.5,282C 272.833,277.333 277.167,272.667 281.5,268C 282.094,267.536 282.761,267.369 283.5,267.5 Z"/></g>
<g><path style="opacity:1" fill="#a04eb3" d="M 152.5,293.5 C 150.052,294.473 147.385,294.806 144.5,294.5C 142.035,294.233 139.701,293.566 137.5,292.5C 132.565,290.663 128.231,291.663 124.5,295.5C 118.582,299.824 112.249,300.491 105.5,297.5C 105.5,297.167 105.5,296.833 105.5,296.5C 106.833,296.5 108.167,296.5 109.5,296.5C 109.5,295.5 109.5,294.5 109.5,293.5C 112.266,293.67 114.933,294.336 117.5,295.5C 121.378,294.899 121.378,294.065 117.5,293C 117.833,292.667 118.167,292.333 118.5,292C 121.133,292.253 123.8,292.253 126.5,292C 125.289,291.107 125.289,290.274 126.5,289.5C 130.779,290.274 135.113,290.774 139.5,291C 143.472,293.271 147.806,294.104 152.5,293.5 Z"/></g>
<g><path style="opacity:0.137" fill="#391640" d="M 137.5,292.5 C 133.225,293.652 128.892,294.652 124.5,295.5C 128.231,291.663 132.565,290.663 137.5,292.5 Z"/></g>
<g><path style="opacity:1" fill="#8c4a9d" d="M 85.5,292.5 C 88.1873,292.336 90.854,292.503 93.5,293C 96.4929,296.189 95.8263,298.022 91.5,298.5C 87.1766,298.692 85.1766,296.692 85.5,292.5 Z"/></g>
<g><path style="opacity:0.788" fill="#7c6b82" d="M 99.5,291.5 C 101.519,293.19 103.519,294.856 105.5,296.5C 105.5,296.833 105.5,297.167 105.5,297.5C 100.5,298.5 98.5,296.5 99.5,291.5 Z"/></g>
<g><path style="opacity:0.263" fill="#32173b" d="M 152.5,293.5 C 153.833,293.5 155.167,293.5 156.5,293.5C 157.82,295.463 159.154,297.463 160.5,299.5C 157.813,299.664 155.146,299.497 152.5,299C 150.18,296.679 147.514,295.179 144.5,294.5C 147.385,294.806 150.052,294.473 152.5,293.5 Z"/></g>
<g><path style="opacity:1" fill="#956ff0" d="M 191.5,299.5 C 191.5,300.833 191.5,302.167 191.5,303.5C 190.167,303.5 188.833,303.5 187.5,303.5C 187.5,304.833 187.5,306.167 187.5,307.5C 184.988,307.423 182.988,308.423 181.5,310.5C 181.798,312.798 181.798,315.131 181.5,317.5C 180.609,316.89 179.609,316.557 178.5,316.5C 176.925,314.059 174.592,312.893 171.5,313C 169.617,309.954 167.284,307.454 164.5,305.5C 162.674,303.853 161.34,301.853 160.5,299.5C 159.154,297.463 157.82,295.463 156.5,293.5C 157.5,292.833 158.5,292.167 159.5,291.5C 163.566,289.399 167.899,288.065 172.5,287.5C 178.369,292.234 184.702,296.234 191.5,299.5 Z"/></g>
<g><path style="opacity:1" fill="#b060f8" d="M 223.5,298.5 C 224.467,299.806 225.801,300.473 227.5,300.5C 226.167,304.167 224.833,307.833 223.5,311.5C 222.022,311.238 220.689,311.571 219.5,312.5C 217.23,318.908 213.23,323.908 207.5,327.5C 202.226,325.942 196.893,324.442 191.5,323C 190.944,322.617 190.611,322.117 190.5,321.5C 191.833,321.5 193.167,321.5 194.5,321.5C 196.599,314.89 200.766,309.89 207,306.5C 210.053,301.467 212.886,296.3 215.5,291C 221.047,287.909 223.714,289.409 223.5,295.5C 216.594,294.402 213.928,297.069 215.5,303.5C 217.857,303.663 220.19,303.497 222.5,303C 223.38,301.644 223.714,300.144 223.5,298.5 Z"/></g>
<g><path style="opacity:1" fill="#bb5cfa" d="M 239.5,275.5 C 239.33,276.822 239.663,277.989 240.5,279C 245.564,282.449 251.064,284.949 257,286.5C 256.969,290.291 256.469,293.958 255.5,297.5C 255.875,294.603 255.375,291.937 254,289.5C 253.459,292.209 251.959,294.209 249.5,295.5C 247.971,299.877 246.471,304.21 245,308.5C 242.145,310.877 238.979,312.544 235.5,313.5C 235.762,314.978 235.429,316.311 234.5,317.5C 232.408,320.681 230.075,323.681 227.5,326.5C 229.261,328.368 231.261,329.701 233.5,330.5C 224.733,330.865 216.066,330.199 207.5,328.5C 207.5,328.167 207.5,327.833 207.5,327.5C 213.23,323.908 217.23,318.908 219.5,312.5C 220.689,311.571 222.022,311.238 223.5,311.5C 224.833,307.833 226.167,304.167 227.5,300.5C 225.801,300.473 224.467,299.806 223.5,298.5C 223.811,297.522 224.478,296.855 225.5,296.5C 227.021,297.937 228.855,298.604 231,298.5C 234.195,297.822 237.362,296.988 240.5,296C 242.504,293.159 243.004,289.993 242,286.5C 241.292,285.619 240.458,284.953 239.5,284.5C 239.5,284.167 239.5,283.833 239.5,283.5C 239.5,282.5 239.5,281.5 239.5,280.5C 236.944,280.868 234.944,280.034 233.5,278C 234.944,275.966 236.944,275.132 239.5,275.5 Z"/></g>
<g><path style="opacity:1" fill="#a765f2" d="M 239.5,275.5 C 236.944,275.132 234.944,275.966 233.5,278C 234.944,280.034 236.944,280.868 239.5,280.5C 239.5,281.5 239.5,282.5 239.5,283.5C 234.017,280.212 229.183,280.879 225,285.5C 223.574,295.306 227.574,298.64 237,295.5C 241.777,292.725 242.61,289.059 239.5,284.5C 240.458,284.953 241.292,285.619 242,286.5C 243.004,289.993 242.504,293.159 240.5,296C 237.362,296.988 234.195,297.822 231,298.5C 228.855,298.604 227.021,297.937 225.5,296.5C 224.478,296.855 223.811,297.522 223.5,298.5C 223.714,300.144 223.38,301.644 222.5,303C 220.19,303.497 217.857,303.663 215.5,303.5C 213.928,297.069 216.594,294.402 223.5,295.5C 223.714,289.409 221.047,287.909 215.5,291C 212.886,296.3 210.053,301.467 207,306.5C 200.766,309.89 196.599,314.89 194.5,321.5C 193.167,321.5 191.833,321.5 190.5,321.5C 187.294,320.546 184.294,319.213 181.5,317.5C 181.798,315.131 181.798,312.798 181.5,310.5C 182.988,308.423 184.988,307.423 187.5,307.5C 187.5,306.167 187.5,304.833 187.5,303.5C 188.833,303.5 190.167,303.5 191.5,303.5C 191.5,302.167 191.5,300.833 191.5,299.5C 197.275,300.225 202.608,299.059 207.5,296C 213.885,288.29 220.219,280.624 226.5,273C 231.266,272.128 235.6,272.962 239.5,275.5 Z"/></g>
<g><path style="opacity:1" fill="#c954fc" d="M 255.5,297.5 C 254.341,303.459 253.841,309.459 254,315.5C 255.495,319.508 257.995,322.841 261.5,325.5C 261.5,325.833 261.5,326.167 261.5,326.5C 256.283,326.975 251.283,328.142 246.5,330C 242.179,330.499 237.846,330.666 233.5,330.5C 231.261,329.701 229.261,328.368 227.5,326.5C 230.075,323.681 232.408,320.681 234.5,317.5C 235.429,316.311 235.762,314.978 235.5,313.5C 238.979,312.544 242.145,310.877 245,308.5C 246.471,304.21 247.971,299.877 249.5,295.5C 251.959,294.209 253.459,292.209 254,289.5C 255.375,291.937 255.875,294.603 255.5,297.5 Z"/></g>
<g><path style="opacity:1" fill="#7752b6" d="M 164.5,305.5 C 167.284,307.454 169.617,309.954 171.5,313C 174.592,312.893 176.925,314.059 178.5,316.5C 177.903,316.735 177.57,317.235 177.5,318C 179.083,319.735 180.416,321.568 181.5,323.5C 174.454,318.787 168.787,312.787 164.5,305.5 Z"/></g>
<g><path style="opacity:1" fill="#b24ccf" d="M 319.5,311.5 C 313.606,320.269 305.939,326.936 296.5,331.5C 296.5,330.167 296.5,328.833 296.5,327.5C 298.109,327.906 299.443,327.906 300.5,327.5C 298.703,326.305 297.703,324.638 297.5,322.5C 300.01,321.217 302.677,320.217 305.5,319.5C 305.5,320.5 305.5,321.5 305.5,322.5C 308.718,322.349 309.051,321.516 306.5,320C 307.893,317.317 309.226,317.15 310.5,319.5C 311.167,317.5 311.833,315.5 312.5,313.5C 313.167,313.833 313.833,314.167 314.5,314.5C 315.333,312.5 316.167,310.5 317,308.5C 317.698,309.691 318.531,310.691 319.5,311.5 Z"/></g>
<g><path style="opacity:1" fill="#c24fe2" d="M 321.5,305.5 C 321.5,306.833 321.5,308.167 321.5,309.5C 321.167,310.5 320.5,311.167 319.5,311.5C 318.531,310.691 317.698,309.691 317,308.5C 316.167,310.5 315.333,312.5 314.5,314.5C 313.833,314.167 313.167,313.833 312.5,313.5C 311.833,315.5 311.167,317.5 310.5,319.5C 309.226,317.15 307.893,317.317 306.5,320C 309.051,321.516 308.718,322.349 305.5,322.5C 305.5,321.5 305.5,320.5 305.5,319.5C 302.677,320.217 300.01,321.217 297.5,322.5C 297.703,324.638 298.703,326.305 300.5,327.5C 299.443,327.906 298.109,327.906 296.5,327.5C 288.822,327.523 281.155,327.856 273.5,328.5C 269.315,328.66 265.315,327.993 261.5,326.5C 261.5,326.167 261.5,325.833 261.5,325.5C 265.329,323.836 269.329,322.669 273.5,322C 274.571,321.148 275.571,320.315 276.5,319.5C 277.5,319.5 278.5,319.5 279.5,319.5C 287.086,319.937 294.419,318.771 301.5,316C 303.909,314.799 305.909,313.133 307.5,311C 309.443,311.305 311.443,311.305 313.5,311C 314.985,307.335 317.651,305.502 321.5,305.5 Z"/></g>
<g><path style="opacity:1" fill="#b643e0" d="M 261.5,326.5 C 265.315,327.993 269.315,328.66 273.5,328.5C 281.155,327.856 288.822,327.523 296.5,327.5C 296.5,328.833 296.5,330.167 296.5,331.5C 292.653,334.593 288.32,336.926 283.5,338.5C 279.071,337.972 275.404,339.305 272.5,342.5C 258.586,344.63 244.586,345.63 230.5,345.5C 228.379,345.675 226.379,345.341 224.5,344.5C 223.517,343.15 222.184,342.15 220.5,341.5C 217.5,340.833 214.5,340.167 211.5,339.5C 211.183,336.913 212.517,335.08 215.5,334C 213.479,333.487 211.979,332.32 211,330.5C 209.215,331.354 208.049,330.687 207.5,328.5C 216.066,330.199 224.733,330.865 233.5,330.5C 237.846,330.666 242.179,330.499 246.5,330C 251.283,328.142 256.283,326.975 261.5,326.5 Z"/></g>
<g><path style="opacity:1" fill="#844eb4" d="M 185.5,326.5 C 187.288,326.215 188.955,326.548 190.5,327.5C 194.469,330.137 198.136,333.137 201.5,336.5C 195.363,334.346 190.03,331.013 185.5,326.5 Z"/></g>
<g><path style="opacity:1" fill="#9d4ed7" d="M 178.5,316.5 C 179.609,316.557 180.609,316.89 181.5,317.5C 184.294,319.213 187.294,320.546 190.5,321.5C 190.611,322.117 190.944,322.617 191.5,323C 196.893,324.442 202.226,325.942 207.5,327.5C 207.5,327.833 207.5,328.167 207.5,328.5C 208.049,330.687 209.215,331.354 211,330.5C 211.979,332.32 213.479,333.487 215.5,334C 212.517,335.08 211.183,336.913 211.5,339.5C 214.5,340.167 217.5,340.833 220.5,341.5C 222.184,342.15 223.517,343.15 224.5,344.5C 216.197,343.4 208.53,340.734 201.5,336.5C 198.136,333.137 194.469,330.137 190.5,327.5C 188.955,326.548 187.288,326.215 185.5,326.5C 183.596,326.262 182.262,325.262 181.5,323.5C 180.416,321.568 179.083,319.735 177.5,318C 177.57,317.235 177.903,316.735 178.5,316.5 Z"/></g>
<g><path style="opacity:1" fill="#8e41a9" d="M 283.5,338.5 C 280.203,340.601 276.537,341.935 272.5,342.5C 275.404,339.305 279.071,337.972 283.5,338.5 Z"/></g>
<g><path style="opacity:1" fill="#9e0f2b" d="M 312.5,331.5 C 312.5,332.167 312.5,332.833 312.5,333.5C 306.019,335.89 300.019,339.223 294.5,343.5C 292.423,344.988 291.423,346.988 291.5,349.5C 289.221,348.132 288.554,346.298 289.5,344C 296.582,339.375 303.749,334.875 311,330.5C 311.383,331.056 311.883,331.389 312.5,331.5 Z"/></g>
<g><path style="opacity:1" fill="#42829f" d="M 312.5,331.5 C 315.326,333.309 317.326,335.809 318.5,339C 316.013,340.755 313.68,342.755 311.5,345C 313.494,347.158 314.828,349.658 315.5,352.5C 312.78,350.083 310.78,347.083 309.5,343.5C 311.833,341.833 313.833,339.833 315.5,337.5C 315.246,335.583 314.246,334.249 312.5,333.5C 312.5,332.833 312.5,332.167 312.5,331.5 Z"/></g>
<g><path style="opacity:1" fill="#9546ad" d="M 272.5,342.5 C 269.459,343.245 266.793,344.578 264.5,346.5C 263.5,346.5 262.5,346.5 261.5,346.5C 251.198,346.73 240.864,346.397 230.5,345.5C 244.586,345.63 258.586,344.63 272.5,342.5 Z"/></g>
<g><path style="opacity:0.776" fill="#9ba1a1" d="M 261.5,346.5 C 262.5,346.5 263.5,346.5 264.5,346.5C 265.94,348.42 265.607,350.087 263.5,351.5C 261.783,350.332 261.116,348.665 261.5,346.5 Z"/></g>
<g><path style="opacity:1" fill="#6d0b46" d="M 202.5,348.5 C 202.735,347.903 203.235,347.57 204,347.5C 211.464,349.316 218.631,351.649 225.5,354.5C 220.5,353.833 215.5,353.167 210.5,352.5C 208.383,350.684 206.049,350.35 203.5,351.5C 203.737,350.209 203.404,349.209 202.5,348.5 Z"/></g>
<g><path style="opacity:1" fill="#770b3a" d="M 274.5,349.5 C 274.735,348.903 275.235,348.57 276,348.5C 278.819,348.982 281.319,349.982 283.5,351.5C 280.833,351.5 278.167,351.5 275.5,351.5C 277.031,350.075 276.698,349.409 274.5,349.5 Z"/></g>
<g><path style="opacity:1" fill="#620774" d="M 312.5,333.5 C 314.246,334.249 315.246,335.583 315.5,337.5C 313.833,339.833 311.833,341.833 309.5,343.5C 310.78,347.083 312.78,350.083 315.5,352.5C 315.848,357.499 318.181,361.166 322.5,363.5C 323.343,366.516 324.843,369.183 327,371.5C 327.49,372.793 327.657,374.127 327.5,375.5C 325.651,376.593 323.984,377.926 322.5,379.5C 320.973,379.573 319.973,378.906 319.5,377.5C 319.627,373.287 317.96,369.954 314.5,367.5C 313.682,365.892 313.015,364.225 312.5,362.5C 311.675,361.614 310.675,361.281 309.5,361.5C 307.916,357.249 306.416,352.916 305,348.5C 303.708,347.209 302.542,347.209 301.5,348.5C 298.268,348.772 296.268,350.438 295.5,353.5C 293.659,352.598 292.326,351.264 291.5,349.5C 291.423,346.988 292.423,344.988 294.5,343.5C 300.019,339.223 306.019,335.89 312.5,333.5 Z"/></g>
<g><path style="opacity:0.894" fill="#58a9c7" d="M 301.5,348.5 C 301.5,349.167 301.5,349.833 301.5,350.5C 299.483,351.529 297.483,352.529 295.5,353.5C 296.268,350.438 298.268,348.772 301.5,348.5 Z"/></g>
<g><path style="opacity:1" fill="#9d0d2d" d="M 202.5,348.5 C 203.404,349.209 203.737,350.209 203.5,351.5C 199.426,364.245 196.093,377.245 193.5,390.5C 192.833,390.833 192.167,391.167 191.5,391.5C 190.711,391.217 190.044,390.717 189.5,390C 193.561,375.989 197.894,362.156 202.5,348.5 Z"/></g>
<g><path style="opacity:1" fill="#5b0e75" d="M 210.5,352.5 C 215.5,353.167 220.5,353.833 225.5,354.5C 226.167,354.5 226.5,354.833 226.5,355.5C 225.962,357.117 225.629,358.784 225.5,360.5C 221.329,361.41 217.162,361.077 213,359.5C 211.319,359.608 210.152,360.275 209.5,361.5C 208.833,363.819 208.666,366.153 209,368.5C 209.383,367.944 209.883,367.611 210.5,367.5C 212.167,368.833 213.833,370.167 215.5,371.5C 215.483,373.565 215.15,375.565 214.5,377.5C 212.167,377.5 209.833,377.5 207.5,377.5C 206.698,376.115 206.031,376.282 205.5,378C 203.767,382.768 202.267,387.602 201,392.5C 199.301,393.406 197.467,393.739 195.5,393.5C 193.847,393.34 192.514,392.674 191.5,391.5C 192.167,391.167 192.833,390.833 193.5,390.5C 195.717,389.631 198.05,389.298 200.5,389.5C 200.571,386.689 201.238,384.022 202.5,381.5C 202.333,380.833 202.167,380.167 202,379.5C 201.002,382.028 200.169,382.028 199.5,379.5C 200.01,377.912 201.01,376.745 202.5,376C 201.62,374.644 201.286,373.144 201.5,371.5C 202.833,371.5 204.167,371.5 205.5,371.5C 205.5,372.5 205.5,373.5 205.5,374.5C 207.144,374.714 208.644,374.38 210,373.5C 210.419,374.672 211.085,375.672 212,376.5C 212.199,374.598 213.033,373.098 214.5,372C 211.83,370.652 209.33,369.819 207,369.5C 206.002,364.857 205.668,360.19 206,355.5C 206.589,353.137 208.089,352.137 210.5,352.5 Z"/></g>
<g><path style="opacity:0.961" fill="#87183e" d="M 236.5,355.5 C 240.167,354.167 243.833,354.167 247.5,355.5C 244.753,355.187 242.086,355.52 239.5,356.5C 238.873,357.417 238.539,358.417 238.5,359.5C 238.167,359.5 237.833,359.5 237.5,359.5C 237.768,357.901 237.434,356.568 236.5,355.5 Z"/></g>
<g><path style="opacity:1" fill="#504686" d="M 315.5,352.5 C 318.579,355.65 320.913,359.317 322.5,363.5C 318.181,361.166 315.848,357.499 315.5,352.5 Z"/></g>
<g><path style="opacity:1" fill="#3ea5b8" d="M 226.5,355.5 C 227.497,355.47 228.164,355.97 228.5,357C 227.922,358.811 227.422,360.645 227,362.5C 226.329,363.252 225.496,363.586 224.5,363.5C 225.11,362.609 225.443,361.609 225.5,360.5C 225.629,358.784 225.962,357.117 226.5,355.5 Z"/></g>
<g><path style="opacity:1" fill="#405e84" d="M 225.5,360.5 C 225.443,361.609 225.11,362.609 224.5,363.5C 220.951,362.737 217.451,361.737 214,360.5C 212.989,361.056 212.156,361.722 211.5,362.5C 211.591,360.302 210.925,359.969 209.5,361.5C 210.152,360.275 211.319,359.608 213,359.5C 217.162,361.077 221.329,361.41 225.5,360.5 Z"/></g>
<g><path style="opacity:1" fill="#4c97ae" d="M 287.5,354.5 C 293.775,360.202 292.608,363.535 284,364.5C 283.235,364.43 282.735,364.097 282.5,363.5C 284.588,362.061 286.921,361.394 289.5,361.5C 289.122,359.079 288.455,356.746 287.5,354.5 Z"/></g>
<g><path style="opacity:1" fill="#6a0071" d="M 210.5,352.5 C 208.089,352.137 206.589,353.137 206,355.5C 205.668,360.19 206.002,364.857 207,369.5C 209.33,369.819 211.83,370.652 214.5,372C 213.033,373.098 212.199,374.598 212,376.5C 211.085,375.672 210.419,374.672 210,373.5C 208.644,374.38 207.144,374.714 205.5,374.5C 205.5,373.5 205.5,372.5 205.5,371.5C 204.167,371.5 202.833,371.5 201.5,371.5C 201.286,373.144 201.62,374.644 202.5,376C 201.01,376.745 200.01,377.912 199.5,379.5C 200.169,382.028 201.002,382.028 202,379.5C 202.167,380.167 202.333,380.833 202.5,381.5C 201.238,384.022 200.571,386.689 200.5,389.5C 198.05,389.298 195.717,389.631 193.5,390.5C 196.093,377.245 199.426,364.245 203.5,351.5C 206.049,350.35 208.383,350.684 210.5,352.5 Z"/></g>
<g><path style="opacity:1" fill="#51b5c7" d="M 211.5,362.5 C 211.371,364.216 211.038,365.883 210.5,367.5C 209.883,367.611 209.383,367.944 209,368.5C 208.666,366.153 208.833,363.819 209.5,361.5C 210.925,359.969 211.591,360.302 211.5,362.5 Z"/></g>
<g><path style="opacity:0.005" fill="#000000" d="M 277.5,363.5 C 280.001,363.511 280.168,364.178 278,365.5C 277.536,364.906 277.369,364.239 277.5,363.5 Z"/></g>
<g><path style="opacity:0.675" fill="#4c89a3" d="M 278.5,359.5 C 276.11,359.685 275.11,361.018 275.5,363.5C 277.609,371.432 279.609,379.099 281.5,386.5C 281.19,387.738 280.69,387.738 280,386.5C 277.524,378.598 275.357,370.598 273.5,362.5C 273.676,358.725 275.343,357.725 278.5,359.5 Z"/></g>
<g><path style="opacity:0.973" fill="#75084a" d="M 319.5,377.5 C 313.252,368.672 307.252,359.672 301.5,350.5C 301.5,349.833 301.5,349.167 301.5,348.5C 302.542,347.209 303.708,347.209 305,348.5C 306.416,352.916 307.916,357.249 309.5,361.5C 310.675,361.281 311.675,361.614 312.5,362.5C 313.015,364.225 313.682,365.892 314.5,367.5C 317.96,369.954 319.627,373.287 319.5,377.5 Z"/></g>
<g><path style="opacity:0.953" fill="#46628a" d="M 322.5,363.5 C 325.313,366.446 327.646,369.779 329.5,373.5C 328.833,374.167 328.167,374.833 327.5,375.5C 327.657,374.127 327.49,372.793 327,371.5C 324.843,369.183 323.343,366.516 322.5,363.5 Z"/></g>
<g><path style="opacity:0.943" fill="#8c0f2f" d="M 274.5,349.5 C 276.698,349.409 277.031,350.075 275.5,351.5C 267.945,351.931 264.611,355.931 265.5,363.5C 266.834,374.168 270.167,384.168 275.5,393.5C 272.178,392.342 270.012,390.008 269,386.5C 266.216,378.483 264.049,370.316 262.5,362C 262.614,354.109 266.614,349.942 274.5,349.5 Z"/></g>
<g><path style="opacity:1" fill="#a30f26" d="M 236.5,355.5 C 237.434,356.568 237.768,357.901 237.5,359.5C 235.45,370.248 232.95,380.915 230,391.5C 229.503,394.146 229.336,396.813 229.5,399.5C 228.833,399.5 228.167,399.5 227.5,399.5C 229.478,384.878 232.478,370.211 236.5,355.5 Z"/></g>
<g><path style="opacity:1" fill="#49a4b8" d="M 215.5,371.5 C 216.649,371.791 217.316,372.624 217.5,374C 217.057,375.825 216.723,377.658 216.5,379.5C 215.167,379.5 213.833,379.5 212.5,379.5C 213.167,378.833 213.833,378.167 214.5,377.5C 215.15,375.565 215.483,373.565 215.5,371.5 Z"/></g>
<g><path style="opacity:1" fill="#49a8c0" d="M 329.5,373.5 C 330.684,374.688 330.684,375.855 329.5,377C 327.63,378.366 325.63,379.533 323.5,380.5C 322.893,380.376 322.56,380.043 322.5,379.5C 323.984,377.926 325.651,376.593 327.5,375.5C 328.167,374.833 328.833,374.167 329.5,373.5 Z"/></g>
<g><path style="opacity:0.608" fill="#324a74" d="M 207.5,377.5 C 209.833,377.5 212.167,377.5 214.5,377.5C 213.833,378.167 213.167,378.833 212.5,379.5C 210.451,378.359 208.451,378.359 206.5,379.5C 206.328,378.508 206.662,377.842 207.5,377.5 Z"/></g>
<g><path style="opacity:1" fill="#44a7be" d="M 295.5,379.5 C 296.117,379.611 296.617,379.944 297,380.5C 298.808,390.707 294.475,396.374 284,397.5C 281.889,397.299 280.055,396.633 278.5,395.5C 290.744,396.919 296.411,391.585 295.5,379.5 Z"/></g>
<g><path style="opacity:1" fill="#44a1b9" d="M 207.5,377.5 C 206.662,377.842 206.328,378.508 206.5,379.5C 205.578,384.6 204.245,389.6 202.5,394.5C 199.934,395.606 197.6,395.273 195.5,393.5C 197.467,393.739 199.301,393.406 201,392.5C 202.267,387.602 203.767,382.768 205.5,378C 206.031,376.282 206.698,376.115 207.5,377.5 Z"/></g>
<g><path style="opacity:1" fill="#9b0e2e" d="M 295.5,379.5 C 292.833,379.5 290.167,379.5 287.5,379.5C 287.5,382.167 287.5,384.833 287.5,387.5C 285.585,387.784 283.919,387.451 282.5,386.5C 283.66,385.735 284.66,384.735 285.5,383.5C 284.691,381.929 284.357,380.262 284.5,378.5C 287.313,378.452 289.979,377.785 292.5,376.5C 293.855,377.188 294.855,378.188 295.5,379.5 Z"/></g>
<g><path style="opacity:1" fill="#6d046d" d="M 237.5,359.5 C 237.833,359.5 238.167,359.5 238.5,359.5C 238.5,360.833 238.5,362.167 238.5,363.5C 239.675,363.281 240.675,363.614 241.5,364.5C 242.541,366.585 244.041,368.252 246,369.5C 246.362,374.681 246.862,379.848 247.5,385C 246.909,387.239 246.242,389.406 245.5,391.5C 241.217,392.011 237.217,391.344 233.5,389.5C 231.586,392.698 230.253,396.031 229.5,399.5C 229.336,396.813 229.503,394.146 230,391.5C 232.95,380.915 235.45,370.248 237.5,359.5 Z"/></g>
<g><path style="opacity:0.141" fill="#940e36" d="M 241.5,385.5 C 241.833,385.5 242.167,385.5 242.5,385.5C 243.497,385.53 244.164,385.03 244.5,384C 243.767,382.234 243.433,380.401 243.5,378.5C 244.268,377.737 244.768,376.737 245,375.5C 245.499,379.486 245.666,383.486 245.5,387.5C 243.801,387.66 242.134,387.494 240.5,387C 241.056,386.617 241.389,386.117 241.5,385.5 Z"/></g>
<g><path style="opacity:0.071" fill="#24161b" d="M 243.5,377.5 C 243.5,377.833 243.5,378.167 243.5,378.5C 243.433,380.401 243.767,382.234 244.5,384C 244.164,385.03 243.497,385.53 242.5,385.5C 242.5,385.167 242.5,384.833 242.5,384.5C 243.833,384.167 243.833,383.833 242.5,383.5C 242.205,381.265 242.539,379.265 243.5,377.5 Z"/></g>
<g><path style="opacity:1" fill="#5ea5c4" d="M 243.5,377.5 C 242.539,379.265 242.205,381.265 242.5,383.5C 242.5,383.833 242.5,384.167 242.5,384.5C 242.5,384.833 242.5,385.167 242.5,385.5C 242.167,385.5 241.833,385.5 241.5,385.5C 240.664,381.602 240.997,377.602 242.5,373.5C 243.429,374.689 243.762,376.022 243.5,377.5 Z"/></g>
<g><path style="opacity:1" fill="#610974" d="M 275.5,351.5 C 278.167,351.5 280.833,351.5 283.5,351.5C 285.23,352.026 286.564,353.026 287.5,354.5C 288.455,356.746 289.122,359.079 289.5,361.5C 286.921,361.394 284.588,362.061 282.5,363.5C 280.5,362.833 279.167,361.5 278.5,359.5C 275.343,357.725 273.676,358.725 273.5,362.5C 275.357,370.598 277.524,378.598 280,386.5C 280.69,387.738 281.19,387.738 281.5,386.5C 281.833,386.5 282.167,386.5 282.5,386.5C 283.919,387.451 285.585,387.784 287.5,387.5C 287.5,384.833 287.5,382.167 287.5,379.5C 290.167,379.5 292.833,379.5 295.5,379.5C 296.411,391.585 290.744,396.919 278.5,395.5C 276.973,395.573 275.973,394.906 275.5,393.5C 270.167,384.168 266.834,374.168 265.5,363.5C 264.611,355.931 267.945,351.931 275.5,351.5 Z"/></g>
<g><path style="opacity:0.953" fill="#4a8ba8" d="M 249.5,356.5 C 253.706,371.522 257.04,386.856 259.5,402.5C 256.287,402.81 253.287,402.477 250.5,401.5C 252.607,400.532 254.941,400.198 257.5,400.5C 254.965,386.105 251.965,371.771 248.5,357.5C 248.624,356.893 248.957,356.56 249.5,356.5 Z"/></g>
<g><path style="opacity:1" fill="#5d0b76" d="M 247.5,355.5 C 248.492,355.328 249.158,355.662 249.5,356.5C 248.957,356.56 248.624,356.893 248.5,357.5C 251.965,371.771 254.965,386.105 257.5,400.5C 254.941,400.198 252.607,400.532 250.5,401.5C 249.29,401.068 248.29,400.401 247.5,399.5C 248.5,399.5 249.5,399.5 250.5,399.5C 250.662,397.473 250.495,395.473 250,393.5C 248.384,392.199 246.884,392.199 245.5,393.5C 243.167,393.5 240.833,393.5 238.5,393.5C 238.007,395.806 237.674,398.139 237.5,400.5C 234.941,400.198 232.607,400.532 230.5,401.5C 229.29,401.068 228.29,400.401 227.5,399.5C 228.167,399.5 228.833,399.5 229.5,399.5C 230.253,396.031 231.586,392.698 233.5,389.5C 237.217,391.344 241.217,392.011 245.5,391.5C 246.242,389.406 246.909,387.239 247.5,385C 246.862,379.848 246.362,374.681 246,369.5C 244.041,368.252 242.541,366.585 241.5,364.5C 240.675,363.614 239.675,363.281 238.5,363.5C 238.5,362.167 238.5,360.833 238.5,359.5C 238.539,358.417 238.873,357.417 239.5,356.5C 242.086,355.52 244.753,355.187 247.5,355.5 Z"/></g>
<g><path style="opacity:0.914" fill="#750c55" d="M 245.5,393.5 C 246.884,392.199 248.384,392.199 250,393.5C 250.495,395.473 250.662,397.473 250.5,399.5C 249.5,399.5 248.5,399.5 247.5,399.5C 245.462,398.144 245.128,396.477 246.5,394.5C 246.5,393.833 246.167,393.5 245.5,393.5 Z"/></g>
<g><path style="opacity:0.929" fill="#56a8c6" d="M 245.5,393.5 C 246.167,393.5 246.5,393.833 246.5,394.5C 244.5,394.5 242.5,394.5 240.5,394.5C 240.326,396.861 239.993,399.194 239.5,401.5C 236.19,401.661 233.19,401.661 230.5,401.5C 232.607,400.532 234.941,400.198 237.5,400.5C 237.674,398.139 238.007,395.806 238.5,393.5C 240.833,393.5 243.167,393.5 245.5,393.5 Z"/></g>
</svg>
